STARTFONT 2.1
FONT -FontForge-Ostrich Sans-Heavy-R-Normal-Sans-46-350-96-96--167--
SIZE 35 96 96
FONTBOUNDINGBOX 34 50 -5 -10
COMMENT "Generated by fontforge, http://fontforge.sourceforge.net"
COMMENT "Copyright (c) 2013 by The League of Moveable Type. All rights reserved."
STARTPROPERTIES 39
FOUNDRY "FontForge"
FAMILY_NAME "Ostrich Sans"
WEIGHT_NAME "Heavy"
SLANT "R"
SETWIDTH_NAME "Normal"
ADD_STYLE_NAME "Sans"
PIXEL_SIZE 46
POINT_SIZE 350
RESOLUTION_X 96
RESOLUTION_Y 96
SPACING ""
AVERAGE_WIDTH 0
CHARSET_REGISTRY ""
CHARSET_ENCODING ""
FONTNAME_REGISTRY ""
CHARSET_COLLECTIONS "ISO10646-1"
FONT_NAME "OstrichSans-Heavy"
FACE_NAME "Ostrich Sans Heavy"
COPYRIGHT "Copyright (c) 2013 by The League of Moveable Type. All rights reserved."
FONT_VERSION "001.001"
FONT_ASCENT 37
FONT_DESCENT 9
UNDERLINE_POSITION -3
UNDERLINE_THICKNESS 3
X_HEIGHT 30
CAP_HEIGHT 30
RAW_ASCENT 800
RAW_DESCENT 200
NORM_SPACE 10
RELATIVE_WEIGHT 90
RELATIVE_SETWIDTH 50
SUPERSCRIPT_X 0
SUPERSCRIPT_Y 16
SUPERSCRIPT_SIZE 27
SUBSCRIPT_X 0
SUBSCRIPT_Y 3
SUBSCRIPT_SIZE 27
AVG_LOWERCASE_WIDTH 179
AVG_UPPERCASE_WIDTH 179
ENDPROPERTIES
CHARS 310
STARTCHAR CR
ENCODING 13
SWIDTH 210 0
DWIDTH 10 0
BBX 1 1 0 0
BITMAP
00
ENDCHAR
STARTCHAR space
ENCODING 32
SWIDTH 210 0
DWIDTH 10 0
BBX 1 1 0 0
BITMAP
00
ENDCHAR
STARTCHAR exclam
ENCODING 33
SWIDTH 143 0
DWIDTH 7 0
BBX 4 31 0 0
BITMAP
F0
F0
F0
F0
F0
F0
F0
F0
F0
F0
F0
F0
F0
F0
F0
F0
F0
F0
F0
F0
F0
F0
F0
F0
00
00
F0
F0
F0
F0
60
ENDCHAR
STARTCHAR quotedbl
ENCODING 34
SWIDTH 212 0
DWIDTH 10 0
BBX 7 7 0 24
BITMAP
FC
FE
FE
FE
FE
FE
FC
ENDCHAR
STARTCHAR numbersign
ENCODING 35
SWIDTH 592 0
DWIDTH 27 0
BBX 24 31 -1 0
BITMAP
001830
007C78
007CF8
007CF8
007CF8
0078F0
00F8F0
00F9F0
00F9F0
00F9F0
7FFFFF
7FFFFF
7FFFFF
3FFFFF
01F3E0
01E3E0
01E3C0
3FFFF8
FFFFFE
FFFFFE
FFFFFE
FFFFFE
07CF80
07CF80
07CF80
078F80
078F00
0F8F00
0F9F00
0F9F00
0F1F00
ENDCHAR
STARTCHAR dollar
ENCODING 36
SWIDTH 398 0
DWIDTH 18 0
BBX 15 37 0 -3
BITMAP
03C0
07C0
07C0
0FE0
1FF0
3FF8
7FFC
7FFE
F83E
F83E
F81E
F81E
F81E
FC1E
7C00
7E00
3F80
1FC0
0FE0
07F0
03F8
01FC
007C
F03E
F83E
F81E
F81E
F83E
F83E
7FFE
7FFC
3FFC
1FF8
07E0
07C0
07C0
0380
ENDCHAR
STARTCHAR percent
ENCODING 37
SWIDTH 554 0
DWIDTH 25 0
BBX 24 31 0 0
BITMAP
1E00F0
3F81F0
7FC1F0
7FC3E0
FFC3E0
FBC3E0
FBC7C0
FBC7C0
FBCF80
FBCF80
FFCF80
7FDF00
7F9F00
3F3E00
043E00
003E00
007C00
007C7C
0078FE
00F9FF
00F9FF
01F3EF
01F3EF
03E3EF
03E3EF
03E3EF
07C3FF
07C1FF
0781FF
0F80FE
07807C
ENDCHAR
STARTCHAR ampersand
ENCODING 38
SWIDTH 479 0
DWIDTH 22 0
BBX 19 31 0 0
BITMAP
07E000
0FF000
1FF800
1FF800
1FFC00
3E7C00
3E7C00
1E7C00
1E7C00
1F7800
1FF800
0FF800
0FF000
0FF000
0FE000
1FE100
3FF780
7FF7C0
7DFFC0
F8FFC0
F87F80
F07F80
F03F80
F03F80
F81F80
F81F80
FFFF80
7FFFC0
3FFFC0
1FFBE0
07E3C0
ENDCHAR
STARTCHAR quotesingle
ENCODING 39
SWIDTH 131 0
DWIDTH 6 0
BBX 4 7 0 24
BITMAP
F0
F0
F0
F0
F0
F0
F0
ENDCHAR
STARTCHAR parenleft
ENCODING 40
SWIDTH 216 0
DWIDTH 10 0
BBX 8 31 0 0
BITMAP
0C
1E
3F
3E
7E
7C
7C
F8
F8
F8
F8
F0
F0
F0
F0
F0
F0
F0
F0
F8
F8
F8
F8
F8
7C
7C
7E
3E
3F
1E
0C
ENDCHAR
STARTCHAR parenright
ENCODING 41
SWIDTH 208 0
DWIDTH 10 0
BBX 8 31 0 0
BITMAP
70
F8
F8
FC
7C
3E
3E
3E
1E
1F
1F
1F
1F
1F
1F
1F
1F
1F
1F
1F
1F
1E
1E
3E
3E
7C
7C
FC
F8
70
60
ENDCHAR
STARTCHAR asterisk
ENCODING 42
SWIDTH 345 0
DWIDTH 16 0
BBX 13 13 0 18
BITMAP
0780
0F80
0F80
7FF8
FFF8
FFF8
FFF8
3FF0
3FE0
7FF0
7FF0
7CF0
3860
ENDCHAR
STARTCHAR plus
ENCODING 43
SWIDTH 434 0
DWIDTH 20 0
BBX 17 17 0 7
BITMAP
008000
03E000
03E000
03E000
03E000
03E000
3FFE00
FFFF80
FFFF80
FFFF80
7FFF00
03E000
03E000
03E000
03E000
03E000
01C000
ENDCHAR
STARTCHAR comma
ENCODING 44
SWIDTH 135 0
DWIDTH 6 0
BBX 4 7 0 -2
BITMAP
F0
F0
F0
F0
F0
F0
60
ENDCHAR
STARTCHAR hyphen
ENCODING 45
SWIDTH 349 0
DWIDTH 16 0
BBX 13 5 0 13
BITMAP
3FF0
FFF8
FFF8
FFF8
7FF8
ENDCHAR
STARTCHAR period
ENCODING 46
SWIDTH 131 0
DWIDTH 6 0
BBX 4 5 0 0
BITMAP
F0
F0
F0
F0
F0
ENDCHAR
STARTCHAR slash
ENCODING 47
SWIDTH 434 0
DWIDTH 20 0
BBX 15 31 1 0
BITMAP
001E
001E
003E
003E
007C
007C
007C
00F8
00F8
01F0
01F0
01F0
03E0
03E0
07C0
07C0
07C0
0F80
0F80
1F00
1F00
1F00
3E00
3E00
7C00
7C00
7C00
F800
F800
F000
F000
ENDCHAR
STARTCHAR zero
ENCODING 48
SWIDTH 370 0
DWIDTH 17 0
BBX 14 31 0 0
BITMAP
0F80
3FE0
3FF0
7FF0
7FF8
F8F8
F878
F878
F87C
F87C
F87C
F87C
F87C
F87C
F87C
F87C
F87C
F87C
F87C
F87C
F87C
F87C
F878
F878
F878
F8F8
7FF8
7FF0
3FF0
3FE0
0F80
ENDCHAR
STARTCHAR one
ENCODING 49
SWIDTH 244 0
DWIDTH 11 0
BBX 9 31 0 0
BITMAP
0700
0F80
1F80
3F80
7F80
7F80
FF80
FF80
7F80
2F80
0F80
0F80
0F80
0F80
0F80
0F80
0F80
0F80
0F80
0F80
0F80
0F80
0F80
0F80
0F80
0F80
0F80
0F80
0F80
0F80
0F00
ENDCHAR
STARTCHAR two
ENCODING 50
SWIDTH 370 0
DWIDTH 17 0
BBX 14 31 0 0
BITMAP
0F80
3FE0
3FF0
7FF8
7FF8
F8F8
F87C
F87C
F87C
F07C
0078
00F8
00F8
01F8
01F0
03F0
07E0
0FC0
1F80
3F00
3E00
7C00
7C00
7800
F800
F800
FFF0
FFFC
FFFC
FFFC
7FF8
ENDCHAR
STARTCHAR three
ENCODING 51
SWIDTH 353 0
DWIDTH 16 0
BBX 14 31 0 0
BITMAP
0F80
3FE0
3FF0
7FF0
7FF8
F8F8
F878
F87C
F87C
F87C
7078
00F8
01F8
07F0
0FF0
1FE0
1FF0
0FF0
01F8
00F8
7078
F87C
F87C
F878
F878
F8F8
7FF8
7FF0
3FF0
3FE0
0F80
ENDCHAR
STARTCHAR four
ENCODING 52
SWIDTH 374 0
DWIDTH 17 0
BBX 14 31 0 0
BITMAP
003C
003C
007C
007C
00FC
01FC
01FC
03FC
03FC
07FC
07FC
0FBC
0FBC
1F3C
1E3C
3E3C
3C3C
7C3C
FFFC
FFFC
FFFC
FFFC
3FFC
003C
003C
003C
003C
003C
003C
003C
003C
ENDCHAR
STARTCHAR five
ENCODING 53
SWIDTH 360 0
DWIDTH 17 0
BBX 14 31 0 0
BITMAP
7FF8
FFF8
FFFC
FFF8
FFF8
F800
F800
F800
F800
F800
F800
FFC0
FFF0
FFF0
FFF8
FCF8
F8F8
F878
F07C
007C
007C
607C
F07C
F878
F878
F8F8
FDF8
7FF0
7FF0
3FE0
1FC0
ENDCHAR
STARTCHAR six
ENCODING 54
SWIDTH 362 0
DWIDTH 17 0
BBX 14 31 0 0
BITMAP
0F80
1FE0
3FF0
7FF8
7FF8
78F8
F878
F87C
F878
F838
F800
FFE0
FFF0
FFF0
FFF8
FCF8
F878
F878
F87C
F87C
F87C
F87C
F878
F878
F878
F8F8
FFF8
7FF0
7FF0
3FE0
0F80
ENDCHAR
STARTCHAR seven
ENCODING 55
SWIDTH 426 0
DWIDTH 20 0
BBX 17 31 0 0
BITMAP
FFFF00
FFFF80
FFFF80
FFFF80
7FFF00
001F00
001F00
003E00
003E00
007C00
007C00
00F800
00F800
00F800
01F000
01F000
03E000
03E000
03E000
07C000
07C000
0F8000
0F8000
1F0000
1F0000
1F0000
3E0000
3E0000
7C0000
7C0000
380000
ENDCHAR
STARTCHAR eight
ENCODING 56
SWIDTH 382 0
DWIDTH 18 0
BBX 14 31 0 0
BITMAP
0FC0
3FF0
7FF8
7FF8
FFFC
F87C
F87C
F83C
F83C
F83C
F83C
F87C
F87C
7FFC
7FF8
3FF8
7FF8
7FFC
F87C
F87C
F83C
F83C
F83C
F83C
F83C
F87C
FFFC
7FF8
7FF8
3FF0
0FC0
ENDCHAR
STARTCHAR nine
ENCODING 57
SWIDTH 358 0
DWIDTH 16 0
BBX 14 31 0 0
BITMAP
0700
1FE0
3FF0
7FF0
7FF8
FCF8
F878
F878
F87C
F87C
F87C
F87C
F87C
F87C
F87C
F8FC
7FFC
7FFC
7FFC
3FFC
0F7C
0078
F078
F878
F878
F8F8
FDF8
7FF0
7FF0
3FE0
1FC0
ENDCHAR
STARTCHAR colon
ENCODING 58
SWIDTH 163 0
DWIDTH 8 0
BBX 5 18 0 7
BITMAP
60
F0
F8
F8
F8
F0
60
00
00
00
00
00
F0
F8
F8
F8
F0
F0
ENDCHAR
STARTCHAR semicolon
ENCODING 59
SWIDTH 147 0
DWIDTH 7 0
BBX 5 19 0 5
BITMAP
F0
F8
F8
F8
F8
F0
00
00
00
00
00
F0
F0
F8
F8
F8
F8
F0
F0
ENDCHAR
STARTCHAR less
ENCODING 60
SWIDTH 292 0
DWIDTH 13 0
BBX 12 16 -1 8
BITMAP
00E0
03F0
07E0
0FC0
1F80
3F00
7E00
FC00
7E00
7F00
3F80
1FC0
0FE0
07F0
01F0
00C0
ENDCHAR
STARTCHAR equal
ENCODING 61
SWIDTH 362 0
DWIDTH 17 0
BBX 13 13 0 8
BITMAP
FFF8
FFF8
FFF8
FFF8
0000
0000
0000
0000
7FF0
FFF8
FFF8
FFF8
7FF8
ENDCHAR
STARTCHAR greater
ENCODING 62
SWIDTH 292 0
DWIDTH 13 0
BBX 11 16 0 8
BITMAP
F000
F800
FC00
7E00
3F00
1F80
0FC0
07E0
07E0
0FC0
1F80
3F00
7E00
FC00
F800
6000
ENDCHAR
STARTCHAR question
ENCODING 63
SWIDTH 353 0
DWIDTH 16 0
BBX 14 31 0 0
BITMAP
0FC0
3FE0
3FF0
7FF8
7CF8
F878
F87C
F87C
F87C
F87C
707C
00F8
00F8
01F0
03F0
03E0
07C0
0FC0
0F80
0F80
0F00
0F00
0F00
0F00
0000
0000
0F00
0F00
0F00
0F00
0600
ENDCHAR
STARTCHAR at
ENCODING 64
SWIDTH 697 0
DWIDTH 32 0
BBX 28 30 0 0
BITMAP
00018000
003FF000
00FFFC00
03FFFF00
07FFFF80
0FF03FC0
1FC00FC0
1F8007E0
3F3FE3E0
3E7FF3E0
7CFFF1E0
7CFFF1F0
79F9F1F0
79F1F1F0
F9F1E1F0
F9E1E1E0
F9F3E3E0
F9FFE7E0
F9FFEFC0
F8FFFFC0
7C7FFF80
7C01FF00
3E00FC80
3F0003C0
1FC00FE0
0FFFFFE0
07FFFFC0
03FFFF00
00FFFC00
001FE000
ENDCHAR
STARTCHAR A
ENCODING 65
SWIDTH 442 0
DWIDTH 20 0
BBX 17 31 0 0
BITMAP
01C000
03E000
03E000
03E000
03F000
03F000
07F000
07F000
07F000
07F800
0FF800
0F7800
0F7800
0F7C00
1F7C00
1F7C00
1F3C00
1E3C00
1FFE00
3FFE00
3FFE00
3FFE00
3FFF00
7C1F00
7C1F00
7C0F00
780F80
F80F80
F80F80
F80F80
700780
ENDCHAR
STARTCHAR B
ENCODING 66
SWIDTH 386 0
DWIDTH 18 0
BBX 14 31 0 0
BITMAP
7FC0
FFF0
FFF8
FFF8
FFFC
F87C
F87C
F83C
F83C
F83C
F83C
F87C
F87C
FFF8
FFF8
FFF0
FFF8
FFF8
F87C
F87C
F83C
F83C
F83C
F83C
F87C
F87C
FFFC
FFF8
FFF8
FFF0
7FC0
ENDCHAR
STARTCHAR C
ENCODING 67
SWIDTH 394 0
DWIDTH 18 0
BBX 15 31 0 0
BITMAP
07C0
1FF0
3FF8
7FFC
7FFC
F83E
F83E
F83E
F83E
F83E
F81E
F800
F800
F800
F800
F800
F800
F800
F800
F800
F81E
F83E
F83E
F83E
F83E
F83E
7FFC
7FFC
3FF8
1FF0
07E0
ENDCHAR
STARTCHAR D
ENCODING 68
SWIDTH 398 0
DWIDTH 18 0
BBX 15 31 0 0
BITMAP
7FC0
FFF0
FFF8
FFF8
FFFC
F87C
F83C
F83C
F83E
F83E
F83E
F83E
F83E
F83E
F83E
F83E
F83E
F83E
F83E
F83E
F83E
F83E
F83E
F83C
F83C
F87C
FFFC
FFF8
FFF8
FFF0
7FC0
ENDCHAR
STARTCHAR E
ENCODING 69
SWIDTH 353 0
DWIDTH 16 0
BBX 13 31 0 0
BITMAP
FFF8
FFF8
FFF8
FFF8
FFF0
F800
F800
F800
F800
F800
F800
F800
F800
FFE0
FFF0
FFF0
FFF0
FFE0
F800
F800
F800
F800
F800
F800
F800
F800
FFF0
FFF8
FFF8
FFF8
FFF8
ENDCHAR
STARTCHAR F
ENCODING 70
SWIDTH 358 0
DWIDTH 16 0
BBX 13 31 0 0
BITMAP
FFF8
FFF8
FFF8
FFF8
F000
F000
F000
F000
F000
F000
F000
F000
F000
FFE0
FFE0
FFE0
FFE0
F000
F000
F000
F000
F000
F000
F000
F000
F000
F000
F000
F000
F000
6000
ENDCHAR
STARTCHAR G
ENCODING 71
SWIDTH 402 0
DWIDTH 18 0
BBX 15 31 0 0
BITMAP
07E0
1FF8
3FF8
7FFC
7FFE
F83E
F83E
F83E
F81E
F81E
F81E
F800
F800
F800
F800
F87C
F9FE
F9FE
F9FE
F8FE
F81E
F81E
F81E
F83E
F83E
F83E
7FFE
7FFC
3FF8
1FF8
0FE0
ENDCHAR
STARTCHAR H
ENCODING 72
SWIDTH 394 0
DWIDTH 18 0
BBX 14 31 0 0
BITMAP
F03C
F83C
F83C
F83C
F83C
F83C
F83C
F83C
F83C
F83C
F83C
F83C
F83C
FFFC
FFFC
FFFC
FFFC
FFFC
F83C
F83C
F83C
F83C
F83C
F83C
F83C
F83C
F83C
F83C
F83C
F83C
F03C
ENDCHAR
STARTCHAR I
ENCODING 73
SWIDTH 164 0
DWIDTH 8 0
BBX 4 31 0 0
BITMAP
F0
F0
F0
F0
F0
F0
F0
F0
F0
F0
F0
F0
F0
F0
F0
F0
F0
F0
F0
F0
F0
F0
F0
F0
F0
F0
F0
F0
F0
F0
F0
ENDCHAR
STARTCHAR J
ENCODING 74
SWIDTH 374 0
DWIDTH 17 0
BBX 14 31 0 0
BITMAP
0038
007C
007C
007C
007C
007C
007C
007C
007C
007C
007C
007C
007C
007C
007C
007C
007C
007C
007C
007C
607C
F07C
F07C
F07C
F07C
F87C
FFF8
FFF8
7FF0
3FF0
0FC0
ENDCHAR
STARTCHAR K
ENCODING 75
SWIDTH 388 0
DWIDTH 18 0
BBX 16 31 0 0
BITMAP
F01E
F81F
F83F
F83E
F87C
F8FC
F8F8
F9F8
F9F0
FBE0
FFE0
FFC0
FF80
FF80
FF00
FF00
FF80
FF80
FFC0
FFE0
FBE0
FBF0
F9F0
F9F8
F8F8
F87C
F87E
F83E
F83F
F81F
F00E
ENDCHAR
STARTCHAR L
ENCODING 76
SWIDTH 335 0
DWIDTH 15 0
BBX 13 31 0 0
BITMAP
F000
F000
F000
F000
F000
F000
F000
F000
F000
F000
F000
F000
F000
F000
F000
F000
F000
F000
F000
F000
F000
F000
F000
F000
F000
F000
FFF0
FFF8
FFF8
FFF8
FFF0
ENDCHAR
STARTCHAR M
ENCODING 77
SWIDTH 443 0
DWIDTH 20 0
BBX 16 31 0 0
BITMAP
F00F
F80F
F80F
F81F
F81F
F81F
FC1F
FC1F
FC3F
FC3F
FC3F
FE3F
FE3F
FE7F
FE7F
FE7F
FF7F
FF7F
FFFF
FFFF
FFFF
FFFF
FFEF
FFEF
FFEF
FFEF
FBEF
FBEF
FBCF
FBCF
F1CF
ENDCHAR
STARTCHAR N
ENCODING 78
SWIDTH 410 0
DWIDTH 19 0
BBX 15 31 0 0
BITMAP
F01E
F01E
F81E
F81E
FC1E
FC1E
FC1E
FE1E
FE1E
FF1E
FF1E
FF9E
FF9E
FF9E
FFDE
FFDE
FBFE
FBFE
FBFE
F9FE
F9FE
F8FE
F8FE
F8FE
F87E
F87E
F83E
F83E
F83E
F81E
F01E
ENDCHAR
STARTCHAR O
ENCODING 79
SWIDTH 406 0
DWIDTH 19 0
BBX 15 31 0 0
BITMAP
07E0
1FF0
3FF8
7FFC
7FFC
F83E
F83E
F83E
F81E
F81E
F81E
F81E
F81E
F81E
F81E
F81E
F81E
F81E
F81E
F81E
F81E
F81E
F81E
F83E
F83E
F83E
7FFC
7FFC
3FF8
1FF0
07E0
ENDCHAR
STARTCHAR P
ENCODING 80
SWIDTH 390 0
DWIDTH 18 0
BBX 15 31 0 0
BITMAP
FFE0
FFF0
FFF8
FFFC
FFFC
F87E
F83E
F83E
F83E
F83E
F83E
F83E
F87C
FFFC
FFF8
FFF8
FFE0
FE00
F800
F800
F800
F800
F800
F800
F800
F800
F800
F800
F800
F800
7000
ENDCHAR
STARTCHAR Q
ENCODING 81
SWIDTH 398 0
DWIDTH 18 0
BBX 16 32 0 -1
BITMAP
0FC0
1FF0
3FF8
7FFC
7FFC
F83E
F83E
F83E
F83E
F83E
F83E
F83E
F83E
F83E
F83E
F83E
F83E
F83E
F83E
F83E
F83E
F83E
F83E
F8FE
F9FE
F9FE
7FFC
7FFC
3FFE
1FFF
0FDF
001F
ENDCHAR
STARTCHAR R
ENCODING 82
SWIDTH 398 0
DWIDTH 18 0
BBX 15 31 0 0
BITMAP
7FC0
FFF0
FFFC
FFFC
FFFE
F83E
F83E
F81E
F81E
F81E
F83E
F83E
F83E
FFFE
FFFC
FFFC
FFF8
FFFC
F8FC
F83E
F83E
F83E
F83E
F83E
F83E
F83E
F83E
F83E
F83E
F83E
F03C
ENDCHAR
STARTCHAR S
ENCODING 83
SWIDTH 398 0
DWIDTH 18 0
BBX 15 31 0 0
BITMAP
07E0
1FF0
3FF8
7FFC
7FFC
F83E
F83E
F81E
F81E
F81E
F81E
7C00
7E00
3F80
1FC0
0FE0
07F0
03F8
01FC
007C
F07E
F83E
F81E
F81E
F83E
F83E
7FFE
7FFC
3FFC
1FF8
0FE0
ENDCHAR
STARTCHAR T
ENCODING 84
SWIDTH 401 0
DWIDTH 18 0
BBX 15 31 0 0
BITMAP
FFFE
FFFE
FFFE
FFFE
7FFC
07C0
07C0
07C0
07C0
07C0
07C0
07C0
07C0
07C0
07C0
07C0
07C0
07C0
07C0
07C0
07C0
07C0
07C0
07C0
07C0
07C0
07C0
07C0
07C0
07C0
0380
ENDCHAR
STARTCHAR U
ENCODING 85
SWIDTH 409 0
DWIDTH 19 0
BBX 15 31 0 0
BITMAP
F01C
F03E
F03E
F03E
F03E
F03E
F03E
F03E
F03E
F03E
F03E
F03E
F03E
F03E
F03E
F03E
F03E
F03E
F03E
F03E
F03E
F03E
F03E
F03E
F83E
F87E
FFFC
7FFC
7FF8
3FF0
0FC0
ENDCHAR
STARTCHAR V
ENCODING 86
SWIDTH 435 0
DWIDTH 20 0
BBX 17 31 0 0
BITMAP
700780
F80780
F80780
780F80
780F80
7C0F80
7C0F00
7C1F00
3C1F00
3E1F00
3E1E00
3E3E00
1E3E00
1F3E00
1F3C00
1F3C00
0F7C00
0F7C00
0FFC00
0FF800
07F800
07F800
07F800
07F000
07F000
03F000
03F000
03E000
03E000
01E000
01C000
ENDCHAR
STARTCHAR W
ENCODING 87
SWIDTH 560 0
DWIDTH 26 0
BBX 22 31 0 0
BITMAP
F0783C
F0783C
F8787C
F87C7C
F8FC7C
F8FC7C
78FC7C
78FC78
7CFC78
7CFEF8
7DFEF8
7DFEF8
3DFEF8
3DFEF0
3DFEF0
3FFFF0
3FFFF0
3FFFF0
1FCFF0
1FCFE0
1FCFE0
1FCFE0
1FCFE0
1FCFE0
0F87E0
0F87C0
0F87C0
0F87C0
0F87C0
0F87C0
070380
ENDCHAR
STARTCHAR X
ENCODING 88
SWIDTH 442 0
DWIDTH 20 0
BBX 18 31 -1 0
BITMAP
7803C0
F803C0
7C07C0
7C07C0
3E0F80
3E0F80
1F1F00
1F1F00
0FBE00
0FBE00
07FC00
07FC00
07F800
03F800
03F000
01F000
03F000
03F800
07F800
07FC00
07FC00
0FBE00
0FBE00
1F1F00
1F1F00
3E0F80
3E0F80
7C07C0
7C07C0
F803C0
7803C0
ENDCHAR
STARTCHAR Y
ENCODING 89
SWIDTH 406 0
DWIDTH 19 0
BBX 17 31 -1 0
BITMAP
700700
F80F80
FC0F80
7C1F00
7C1F00
3E3E00
3E3E00
1F7E00
1F7C00
1FFC00
0FF800
0FF800
07F000
07F000
03F000
03E000
03E000
03E000
03E000
03E000
03E000
03E000
03E000
03E000
03E000
03E000
03E000
03E000
03E000
03E000
01C000
ENDCHAR
STARTCHAR Z
ENCODING 90
SWIDTH 411 0
DWIDTH 19 0
BBX 15 31 0 0
BITMAP
FFFE
FFFE
FFFE
FFFE
7FFE
007C
007C
00F8
00F8
01F8
01F0
01F0
03E0
03E0
07C0
07C0
07C0
0F80
0F80
1F00
1F00
3F00
3E00
3E00
7C00
7C00
FFF8
FFFE
FFFE
FFFE
FFFE
ENDCHAR
STARTCHAR backslash
ENCODING 92
SWIDTH 430 0
DWIDTH 20 0
BBX 15 31 1 0
BITMAP
F000
F000
F800
F800
7C00
7C00
7C00
3E00
3E00
1F00
1F00
1F00
0F80
0F80
07C0
07C0
07C0
03E0
03E0
01F0
01F0
01F0
00F8
00F8
007C
007C
007C
003E
003E
001E
001E
ENDCHAR
STARTCHAR asciicircum
ENCODING 94
SWIDTH 237 0
DWIDTH 11 0
BBX 11 7 0 33
BITMAP
1E00
3F00
3F80
7FC0
FFE0
FBE0
F1E0
ENDCHAR
STARTCHAR underscore
ENCODING 95
SWIDTH 511 0
DWIDTH 24 0
BBX 20 5 1 -1
BITMAP
7FFFC0
FFFFE0
FFFFF0
FFFFF0
FFFFE0
ENDCHAR
STARTCHAR grave
ENCODING 96
SWIDTH 222 0
DWIDTH 10 0
BBX 10 7 0 33
BITMAP
6000
FC00
FE00
7F80
1FC0
0FC0
03C0
ENDCHAR
STARTCHAR a
ENCODING 97
SWIDTH 442 0
DWIDTH 20 0
BBX 17 31 0 0
BITMAP
01C000
03E000
03E000
03E000
03F000
03F000
07F000
07F000
07F000
07F800
0FF800
0F7800
0F7800
0F7C00
1F7C00
1F7C00
1F3C00
1E3C00
1FFE00
3FFE00
3FFE00
3FFE00
3FFF00
7C1F00
7C1F00
7C0F00
780F80
F80F80
F80F80
F80F80
700780
ENDCHAR
STARTCHAR b
ENCODING 98
SWIDTH 386 0
DWIDTH 18 0
BBX 14 31 0 0
BITMAP
7FC0
FFF0
FFF8
FFF8
FFFC
F87C
F87C
F83C
F83C
F83C
F83C
F87C
F87C
FFF8
FFF8
FFF0
FFF8
FFF8
F87C
F87C
F83C
F83C
F83C
F83C
F87C
F87C
FFFC
FFF8
FFF8
FFF0
7FC0
ENDCHAR
STARTCHAR c
ENCODING 99
SWIDTH 394 0
DWIDTH 18 0
BBX 15 31 0 0
BITMAP
07C0
1FF0
3FF8
7FFC
7FFC
F83E
F83E
F83E
F83E
F83E
F81E
F800
F800
F800
F800
F800
F800
F800
F800
F800
F81E
F83E
F83E
F83E
F83E
F83E
7FFC
7FFC
3FF8
1FF0
07E0
ENDCHAR
STARTCHAR d
ENCODING 100
SWIDTH 398 0
DWIDTH 18 0
BBX 15 31 0 0
BITMAP
7FC0
FFF0
FFF8
FFF8
FFFC
F87C
F83C
F83C
F83E
F83E
F83E
F83E
F83E
F83E
F83E
F83E
F83E
F83E
F83E
F83E
F83E
F83E
F83E
F83C
F83C
F87C
FFFC
FFF8
FFF8
FFF0
7FC0
ENDCHAR
STARTCHAR e
ENCODING 101
SWIDTH 353 0
DWIDTH 16 0
BBX 13 31 0 0
BITMAP
FFF8
FFF8
FFF8
FFF8
FFF0
F800
F800
F800
F800
F800
F800
F800
F800
FFE0
FFF0
FFF0
FFF0
FFE0
F800
F800
F800
F800
F800
F800
F800
F800
FFF0
FFF8
FFF8
FFF8
FFF8
ENDCHAR
STARTCHAR f
ENCODING 102
SWIDTH 358 0
DWIDTH 16 0
BBX 13 31 0 0
BITMAP
FFF8
FFF8
FFF8
FFF8
FFF0
F000
F000
F000
F000
F000
F000
F000
F000
FFC0
FFE0
FFE0
FFE0
FFE0
F000
F000
F000
F000
F000
F000
F000
F000
F000
F000
F000
F000
F000
ENDCHAR
STARTCHAR g
ENCODING 103
SWIDTH 402 0
DWIDTH 18 0
BBX 15 31 0 0
BITMAP
07E0
1FF8
3FF8
7FFC
7FFE
F83E
F83E
F83E
F81E
F81E
F81E
F800
F800
F800
F800
F87C
F9FE
F9FE
F9FE
F8FE
F81E
F81E
F81E
F83E
F83E
F83E
7FFE
7FFC
3FF8
1FF8
0FE0
ENDCHAR
STARTCHAR h
ENCODING 104
SWIDTH 394 0
DWIDTH 18 0
BBX 14 31 0 0
BITMAP
F03C
F83C
F83C
F83C
F83C
F83C
F83C
F83C
F83C
F83C
F83C
F83C
F83C
FFFC
FFFC
FFFC
FFFC
FFFC
F83C
F83C
F83C
F83C
F83C
F83C
F83C
F83C
F83C
F83C
F83C
F83C
F03C
ENDCHAR
STARTCHAR i
ENCODING 105
SWIDTH 164 0
DWIDTH 8 0
BBX 4 31 0 0
BITMAP
F0
F0
F0
F0
F0
F0
F0
F0
F0
F0
F0
F0
F0
F0
F0
F0
F0
F0
F0
F0
F0
F0
F0
F0
F0
F0
F0
F0
F0
F0
F0
ENDCHAR
STARTCHAR j
ENCODING 106
SWIDTH 374 0
DWIDTH 17 0
BBX 14 31 0 0
BITMAP
0038
007C
007C
007C
007C
007C
007C
007C
007C
007C
007C
007C
007C
007C
007C
007C
007C
007C
007C
007C
607C
F07C
F07C
F07C
F07C
F87C
FFF8
FFF8
7FF0
3FF0
0FC0
ENDCHAR
STARTCHAR k
ENCODING 107
SWIDTH 410 0
DWIDTH 19 0
BBX 16 31 0 0
BITMAP
F01E
F81F
F83F
F83E
F87C
F8FC
F8F8
F9F8
F9F0
FBE0
FFE0
FFC0
FF80
FF80
FF00
FF00
FF80
FF80
FFC0
FFE0
FBE0
FBF0
F9F0
F9F8
F8F8
F87C
F87E
F83E
F83F
F81F
F00E
ENDCHAR
STARTCHAR l
ENCODING 108
SWIDTH 335 0
DWIDTH 15 0
BBX 13 31 0 0
BITMAP
F000
F000
F000
F000
F000
F000
F000
F000
F000
F000
F000
F000
F000
F000
F000
F000
F000
F000
F000
F000
F000
F000
F000
F000
F000
F000
FFF0
FFF8
FFF8
FFF8
FFF0
ENDCHAR
STARTCHAR m
ENCODING 109
SWIDTH 443 0
DWIDTH 20 0
BBX 16 31 0 0
BITMAP
F00F
F80F
F80F
F81F
F81F
F81F
FC1F
FC1F
FC3F
FC3F
FC3F
FE3F
FE3F
FE7F
FE7F
FE7F
FF7F
FF7F
FFFF
FFFF
FFFF
FFFF
FFEF
FFEF
FFEF
FFEF
FBEF
FBEF
FBCF
FBCF
F1CF
ENDCHAR
STARTCHAR n
ENCODING 110
SWIDTH 410 0
DWIDTH 19 0
BBX 15 31 0 0
BITMAP
F01E
F01E
F81E
F81E
FC1E
FC1E
FC1E
FE1E
FE1E
FF1E
FF1E
FF9E
FF9E
FF9E
FFDE
FFDE
FBFE
FBFE
FBFE
F9FE
F9FE
F8FE
F8FE
F8FE
F87E
F87E
F83E
F83E
F83E
F81E
F01E
ENDCHAR
STARTCHAR o
ENCODING 111
SWIDTH 406 0
DWIDTH 19 0
BBX 15 31 0 0
BITMAP
07E0
1FF0
3FF8
7FFC
7FFC
F83E
F83E
F83E
F81E
F81E
F81E
F81E
F81E
F81E
F81E
F81E
F81E
F81E
F81E
F81E
F81E
F81E
F81E
F83E
F83E
F83E
7FFC
7FFC
3FF8
1FF0
07E0
ENDCHAR
STARTCHAR p
ENCODING 112
SWIDTH 390 0
DWIDTH 18 0
BBX 15 31 0 0
BITMAP
7FC0
FFF0
FFF8
FFFC
FFFC
F87C
F83E
F83E
F83E
F83E
F83E
F83E
F87C
FFFC
FFFC
FFF8
FFF0
FF80
F800
F800
F800
F800
F800
F800
F800
F800
F800
F800
F800
F800
7000
ENDCHAR
STARTCHAR q
ENCODING 113
SWIDTH 398 0
DWIDTH 18 0
BBX 16 32 0 -1
BITMAP
0FE0
3FF0
7FF8
7FFC
FEFC
F83E
F83E
F83E
F83E
F83E
F83E
F83E
F83E
F83E
F83E
F83E
F83E
F83E
F83E
F83E
F83E
F83E
F83E
F8FE
F9FE
F9FC
7FFC
7FFC
3FFE
1FFF
07DF
001F
ENDCHAR
STARTCHAR r
ENCODING 114
SWIDTH 398 0
DWIDTH 18 0
BBX 15 31 0 0
BITMAP
FFF0
FFF8
FFFC
FFFC
FFFE
F83E
F83E
F81E
F81E
F81E
F83E
F83E
F87E
FFFC
FFFC
FFF8
FFFC
FFFC
F87C
F83E
F83E
F83E
F83E
F83E
F83E
F83E
F83E
F83E
F83E
F83E
701C
ENDCHAR
STARTCHAR s
ENCODING 115
SWIDTH 398 0
DWIDTH 18 0
BBX 15 31 0 0
BITMAP
0FE0
1FF0
3FF8
7FFC
7FFE
F83E
F83E
F81E
F81E
F81E
F81E
7C00
7E00
3F80
1FC0
0FE0
07F0
03F8
01FC
007C
F07E
F83E
F81E
F81E
F83E
F83E
7FFE
7FFC
3FFC
1FF8
07E0
ENDCHAR
STARTCHAR t
ENCODING 116
SWIDTH 401 0
DWIDTH 18 0
BBX 15 31 0 0
BITMAP
FFFE
FFFE
FFFE
FFFE
7FFC
07C0
07C0
07C0
07C0
07C0
07C0
07C0
07C0
07C0
07C0
07C0
07C0
07C0
07C0
07C0
07C0
07C0
07C0
07C0
07C0
07C0
07C0
07C0
07C0
07C0
0380
ENDCHAR
STARTCHAR u
ENCODING 117
SWIDTH 409 0
DWIDTH 19 0
BBX 15 31 0 0
BITMAP
F01C
F03E
F03E
F03E
F03E
F03E
F03E
F03E
F03E
F03E
F03E
F03E
F03E
F03E
F03E
F03E
F03E
F03E
F03E
F03E
F03E
F03E
F03E
F03E
F83E
F87E
FFFC
7FFC
7FF8
3FF0
0FE0
ENDCHAR
STARTCHAR v
ENCODING 118
SWIDTH 435 0
DWIDTH 20 0
BBX 17 31 0 0
BITMAP
700780
F80780
F80780
780F80
780F80
7C0F80
7C0F00
7C1F00
3C1F00
3E1F00
3E1E00
3E3E00
1E3E00
1F3E00
1F3C00
1F3C00
0F7C00
0F7C00
0FFC00
0FF800
07F800
07F800
07F800
07F000
07F000
03F000
03F000
03E000
03E000
01E000
01C000
ENDCHAR
STARTCHAR w
ENCODING 119
SWIDTH 555 0
DWIDTH 26 0
BBX 22 31 0 0
BITMAP
F0783C
F0783C
F8787C
F87C7C
F8FC7C
F8FC7C
78FC7C
78FC78
7CFC78
7CFEF8
7DFEF8
7DFEF8
3DFEF8
3DFEF0
3DFEF0
3FFFF0
3FFFF0
3FFFF0
1FCFF0
1FCFE0
1FCFE0
1FCFE0
1FCFE0
1FCFE0
0F87E0
0F87C0
0F87C0
0F87C0
0F87C0
0F87C0
070380
ENDCHAR
STARTCHAR x
ENCODING 120
SWIDTH 442 0
DWIDTH 20 0
BBX 18 31 -1 0
BITMAP
7803C0
F803C0
7C07C0
7C07C0
3E0F80
3E0F80
1F1F00
1F1F00
0FBE00
0FBE00
07FC00
07FC00
07F800
03F800
03F000
01F000
03F000
03F800
07F800
07FC00
07FC00
0FBE00
0FBE00
1F1F00
1F1F00
3E0F80
3E0F80
7C07C0
7C07C0
F803C0
7803C0
ENDCHAR
STARTCHAR y
ENCODING 121
SWIDTH 406 0
DWIDTH 19 0
BBX 17 31 -1 0
BITMAP
700700
F80F80
FC0F80
7C1F00
7C1F00
3E3E00
3E3E00
1F7E00
1F7C00
1FFC00
0FF800
0FF800
07F000
07F000
03F000
03E000
03E000
03E000
03E000
03E000
03E000
03E000
03E000
03E000
03E000
03E000
03E000
03E000
03E000
03E000
01C000
ENDCHAR
STARTCHAR z
ENCODING 122
SWIDTH 411 0
DWIDTH 19 0
BBX 15 31 0 0
BITMAP
FFFE
FFFE
FFFE
FFFE
7FFE
007C
007C
00F8
00F8
01F8
01F0
01F0
03E0
03E0
07C0
07C0
07C0
0F80
0F80
1F00
1F00
3F00
3E00
3E00
7C00
7C00
FFF8
FFFE
FFFE
FFFE
FFFE
ENDCHAR
STARTCHAR bar
ENCODING 124
SWIDTH 139 0
DWIDTH 6 0
BBX 4 31 0 0
BITMAP
F0
F0
F0
F0
F0
F0
F0
F0
F0
F0
F0
F0
F0
F0
F0
F0
F0
F0
F0
F0
F0
F0
F0
F0
F0
F0
F0
F0
F0
F0
F0
ENDCHAR
STARTCHAR asciitilde
ENCODING 126
SWIDTH 322 0
DWIDTH 15 0
BBX 14 7 0 29
BITMAP
1C00
7F18
FFFC
FFFC
FFFC
F3F8
01E0
ENDCHAR
STARTCHAR exclamdown
ENCODING 161
SWIDTH 143 0
DWIDTH 7 0
BBX 4 31 0 0
BITMAP
F0
F0
F0
F0
60
00
F0
F0
F0
F0
F0
F0
F0
F0
F0
F0
F0
F0
F0
F0
F0
F0
F0
F0
F0
F0
F0
F0
F0
F0
60
ENDCHAR
STARTCHAR sterling
ENCODING 163
SWIDTH 373 0
DWIDTH 17 0
BBX 15 31 0 0
BITMAP
01E0
07F8
0FFC
1FFC
1FFE
1E3E
3E1C
3E00
3E00
3E00
3E00
3E00
3E00
7FF0
FFF8
FFF8
FFF8
FFF8
3E00
3E00
3E00
3E00
3E00
3C00
7C00
7C00
FC00
FFFE
FFFE
FFFE
FFFE
ENDCHAR
STARTCHAR dieresis
ENCODING 168
SWIDTH 229 0
DWIDTH 11 0
BBX 10 5 0 33
BITMAP
F3C0
F3C0
F3C0
F3C0
F3C0
ENDCHAR
STARTCHAR copyright
ENCODING 169
SWIDTH 709 0
DWIDTH 33 0
BBX 28 32 1 0
BITMAP
00040000
00FFE000
01FFF800
07FFFC00
0FFFFE00
1FE07F00
1F801F80
3F1F0FC0
7E7FC7C0
7C7FE3E0
78FFE3E0
F8FBE1E0
F8F1E1F0
F0F1F1F0
F0F1E1F0
F0F0C0F0
F0F000F0
F0F000F0
F0F1E1F0
F0F1F1F0
F8F1E1F0
F8FBE1E0
F8FFE3E0
7C7FE3E0
7E7FC7C0
3F3F8FC0
1F803F80
1FF9FF00
0FFFFE00
03FFFC00
01FFF000
003FC000
ENDCHAR
STARTCHAR registered
ENCODING 174
SWIDTH 723 0
DWIDTH 33 0
BBX 28 32 1 0
BITMAP
00040000
00FFE000
03FFF800
07FFFC00
0FFFFF00
1FE07F00
3F801F80
3F7F8FC0
7E7FC7C0
7C7FE3E0
F87FE3E0
F87FE1E0
F87DE1F0
F07DE1F0
F07FE1F0
F07FE0F0
F07FC0F0
F07FE0F0
F07FE1F0
F07FE1F0
F87DE1F0
F87DE1E0
787DE3E0
7C7DE3E0
7E79E7C0
3F39CFC0
1F803F80
1FF9FF00
0FFFFE00
03FFFC00
01FFF000
003FC000
ENDCHAR
STARTCHAR macron
ENCODING 175
SWIDTH 231 0
DWIDTH 11 0
BBX 10 5 0 33
BITMAP
7F80
FFC0
FFC0
FFC0
FFC0
ENDCHAR
STARTCHAR degree
ENCODING 176
SWIDTH 142 0
DWIDTH 7 0
BBX 7 6 -1 30
BITMAP
7C
7E
E6
E6
7E
3C
ENDCHAR
STARTCHAR acute
ENCODING 180
SWIDTH 247 0
DWIDTH 11 0
BBX 10 7 0 33
BITMAP
03C0
0FC0
3FC0
7F80
FE00
FC00
6000
ENDCHAR
STARTCHAR periodcentered
ENCODING 183
SWIDTH 83 0
DWIDTH 4 0
BBX 5 5 -1 15
BITMAP
78
F8
F8
F8
70
ENDCHAR
STARTCHAR cedilla
ENCODING 184
SWIDTH 201 0
DWIDTH 9 0
BBX 9 11 0 -10
BITMAP
3800
3800
3C00
3F00
3F80
3F80
8780
FF80
FF80
FF00
1800
ENDCHAR
STARTCHAR ordmasculine
ENCODING 186
SWIDTH 140 0
DWIDTH 6 0
BBX 7 6 -1 30
BITMAP
7C
7E
E6
E6
7E
3C
ENDCHAR
STARTCHAR questiondown
ENCODING 191
SWIDTH 353 0
DWIDTH 16 0
BBX 14 31 -1 0
BITMAP
0180
03C0
03C0
03C0
03C0
0000
0000
03C0
03C0
03C0
07C0
07C0
07C0
0F80
1F80
1F00
3F00
7E00
7C00
7C00
F838
F87C
F87C
F87C
F878
F8F8
7CF8
7FF8
3FF0
3FE0
0FC0
ENDCHAR
STARTCHAR Agrave
ENCODING 192
SWIDTH 442 0
DWIDTH 20 0
BBX 17 40 0 0
BITMAP
060000
0FC000
0FE000
07F800
01FC00
00FC00
003C00
000000
000000
01C000
03E000
03E000
03E000
03F000
03F000
07F000
07F000
07F000
07F800
0FF800
0F7800
0F7800
0F7C00
1F7C00
1F7C00
1F3C00
1E3C00
1FFE00
3FFE00
3FFE00
3FFE00
3FFF00
7C1F00
7C1F00
7C0F00
780F80
F80F80
F80F80
F80F80
700780
ENDCHAR
STARTCHAR Aacute
ENCODING 193
SWIDTH 442 0
DWIDTH 20 0
BBX 17 40 0 0
BITMAP
001800
00FC00
01FC00
07F800
0FF000
0FC000
0F0000
000000
000000
01C000
03E000
03E000
03E000
03F000
03F000
07F000
07F000
07F000
07F800
0FF800
0F7800
0F7800
0F7C00
1F7C00
1F7C00
1F3C00
1E3C00
1FFE00
3FFE00
3FFE00
3FFE00
3FFF00
7C1F00
7C1F00
7C0F00
780F80
F80F80
F80F80
F80F80
700780
ENDCHAR
STARTCHAR Acircumflex
ENCODING 194
SWIDTH 442 0
DWIDTH 20 0
BBX 17 40 0 0
BITMAP
01C000
03E000
03F000
07F800
0FFC00
0FFC00
0F3C00
000000
000000
01C000
03E000
03E000
03E000
03F000
03F000
07F000
07F000
07F000
07F800
0FF800
0F7800
0F7800
0F7C00
1F7C00
1F7C00
1F3C00
1E3C00
1FFE00
3FFE00
3FFE00
3FFE00
3FFF00
7C1F00
7C1F00
7C0F00
780F80
F80F80
F80F80
F80F80
700780
ENDCHAR
STARTCHAR Atilde
ENCODING 195
SWIDTH 442 0
DWIDTH 20 0
BBX 17 39 0 0
BITMAP
070000
1FCE00
1FFF00
3FFF00
3FFE00
3CFC00
007800
000000
01C000
03E000
03E000
03E000
03F000
03F000
07F000
07F000
07F000
07F800
0FF800
0F7800
0F7800
0F7C00
1F7C00
1F7C00
1F3C00
1E3C00
1FFE00
3FFE00
3FFE00
3FFE00
3FFF00
7C1F00
7C1F00
7C0F00
780F80
F80F80
F80F80
F80F80
700780
ENDCHAR
STARTCHAR Adieresis
ENCODING 196
SWIDTH 442 0
DWIDTH 20 0
BBX 17 38 0 0
BITMAP
0F3C00
0F3C00
0F3C00
0F3C00
0F3C00
000000
000000
01C000
03E000
03E000
03E000
03F000
03F000
07F000
07F000
07F000
07F800
0FF800
0F7800
0F7800
0F7C00
1F7C00
1F7C00
1F3C00
1E3C00
1FFE00
3FFE00
3FFE00
3FFE00
3FFF00
7C1F00
7C1F00
7C0F00
780F80
F80F80
F80F80
F80F80
700780
ENDCHAR
STARTCHAR Aring
ENCODING 197
SWIDTH 442 0
DWIDTH 20 0
BBX 17 40 0 0
BITMAP
00C000
03F000
03F000
033000
037000
03F000
01E000
000000
000000
01C000
03E000
03E000
03E000
03E000
03F000
07F000
07F000
07F000
07F800
0FF800
0F7800
0F7800
0F7C00
1F7C00
1F7C00
1F3C00
1E3C00
1FFE00
3FFE00
3FFE00
3FFE00
3FFF00
7C1F00
7C1F00
7C0F00
780F80
F80F80
F80F80
F80F80
700780
ENDCHAR
STARTCHAR AE
ENCODING 198
SWIDTH 665 0
DWIDTH 31 0
BBX 26 31 0 0
BITMAP
0007FFC0
0007FFC0
000FFFC0
000FFFC0
001FFF80
001F8000
003F8000
003F8000
007F8000
007F8000
007F8000
00FF8000
00FF8000
01F7FF80
01F7FFC0
03E7FFC0
03E7FFC0
07C7FF80
07FF8000
0FFF8000
0FFF8000
0FFF8000
1FFF8000
1F078000
3E078000
3E078000
7C07FF80
7C07FFC0
F807FFC0
F807FFC0
7007FFC0
ENDCHAR
STARTCHAR Ccedilla
ENCODING 199
SWIDTH 394 0
DWIDTH 18 0
BBX 15 41 0 -10
BITMAP
07C0
1FF0
3FF8
7FFC
7FFC
F83E
F83E
F83E
F83E
F83E
F81E
F800
F800
F800
F800
F800
F800
F800
F800
F800
F81E
F83E
F83E
F83E
F83E
F83E
7FFC
7FFC
3FF8
1FF0
07E0
0380
0380
03F0
03F8
03F8
007C
0FFC
0FF8
07F0
01C0
ENDCHAR
STARTCHAR Egrave
ENCODING 200
SWIDTH 353 0
DWIDTH 16 0
BBX 13 40 0 0
BITMAP
1800
3F00
3F80
1FE0
07F0
03F0
0070
0000
0000
FFF8
FFF8
FFF8
FFF8
FFF0
F800
F800
F800
F800
F800
F800
F800
F800
FFE0
FFF0
FFF0
FFF0
FFF0
F800
F800
F800
F800
F800
F800
F800
F800
F800
FFF8
FFF8
FFF8
FFF8
ENDCHAR
STARTCHAR Eacute
ENCODING 201
SWIDTH 353 0
DWIDTH 16 0
BBX 13 40 0 0
BITMAP
0060
03F0
07F0
1FE0
3F80
3F00
3C00
0000
0000
FFF8
FFF8
FFF8
FFF8
FFF0
F800
F800
F800
F800
F800
F800
F800
F800
FFE0
FFF0
FFF0
FFF0
FFE0
F800
F800
F800
F800
F800
F800
F800
F800
FFF0
FFF8
FFF8
FFF8
FFF8
ENDCHAR
STARTCHAR Ecircumflex
ENCODING 202
SWIDTH 353 0
DWIDTH 16 0
BBX 13 40 0 0
BITMAP
0700
0F80
1FC0
3FE0
3FF0
7DF0
3DE0
0000
0000
FFF8
FFF8
FFF8
FFF8
FFF0
F800
F800
F800
F800
F800
F800
F800
F800
FFE0
FFF0
FFF0
FFF0
FFE0
F800
F800
F800
F800
F800
F800
F800
F800
FFF0
FFF8
FFF8
FFF8
FFF8
ENDCHAR
STARTCHAR Edieresis
ENCODING 203
SWIDTH 353 0
DWIDTH 16 0
BBX 13 38 0 0
BITMAP
3CF0
3CF0
3CF0
3CF0
3CF0
0000
0000
FFF8
FFF8
FFF8
FFF8
FFF0
F800
F800
F800
F800
F800
F800
F800
F800
FFE0
FFF0
FFF0
FFF0
FFE0
F800
F800
F800
F800
F800
F800
F800
F800
FFF0
FFF8
FFF8
FFF8
FFF8
ENDCHAR
STARTCHAR Igrave
ENCODING 204
SWIDTH 159 0
DWIDTH 7 0
BBX 10 40 -2 0
BITMAP
6000
F800
FE00
7F80
3FC0
0FC0
03C0
0000
0000
3C00
3C00
3C00
3C00
3C00
3C00
3C00
3C00
3C00
3C00
3C00
3C00
3C00
3C00
3C00
3C00
3C00
3C00
3C00
3C00
3C00
3C00
3C00
3C00
3C00
3C00
3C00
3C00
3C00
3C00
3C00
ENDCHAR
STARTCHAR Iacute
ENCODING 205
SWIDTH 159 0
DWIDTH 7 0
BBX 11 40 -3 0
BITMAP
00C0
07E0
1FE0
3FC0
7F00
FC00
7000
0000
0000
1E00
1E00
1E00
1E00
1E00
1E00
1E00
1E00
1E00
1E00
1E00
1E00
1E00
1E00
1E00
1E00
1E00
1E00
1E00
1E00
1E00
1E00
1E00
1E00
1E00
1E00
1E00
1E00
1E00
1E00
1E00
ENDCHAR
STARTCHAR Icircumflex
ENCODING 206
SWIDTH 159 0
DWIDTH 7 0
BBX 11 40 -3 0
BITMAP
0E00
1F00
3F80
7FC0
FFC0
FBE0
F3C0
0000
0000
1E00
1E00
1E00
1E00
1E00
1E00
1E00
1E00
1E00
1E00
1E00
1E00
1E00
1E00
1E00
1E00
1E00
1E00
1E00
1E00
1E00
1E00
1E00
1E00
1E00
1E00
1E00
1E00
1E00
1E00
1E00
ENDCHAR
STARTCHAR Idieresis
ENCODING 207
SWIDTH 159 0
DWIDTH 7 0
BBX 11 38 -3 0
BITMAP
71E0
FBE0
FBE0
FBE0
71E0
0000
0000
1E00
1E00
1E00
1E00
1E00
1E00
1E00
1E00
1E00
1E00
1E00
1E00
1E00
1E00
1E00
1E00
1E00
1E00
1E00
1E00
1E00
1E00
1E00
1E00
1E00
1E00
1E00
1E00
1E00
1E00
1E00
ENDCHAR
STARTCHAR Eth
ENCODING 208
SWIDTH 398 0
DWIDTH 18 0
BBX 18 31 -4 0
BITMAP
0FFC00
0FFF00
0FFF80
0FFF80
0FFFC0
0F87C0
0F87C0
0F83C0
0F83C0
0F83C0
0F83C0
0F83C0
0F83C0
7FF3C0
FFFBC0
FFFBC0
FFFBC0
7FFBC0
0F83C0
0F83C0
0F83C0
0F83C0
0F83C0
0F83C0
0F87C0
0F87C0
0FFFC0
0FFF80
0FFF80
0FFF00
0FFC00
ENDCHAR
STARTCHAR Ntilde
ENCODING 209
SWIDTH 410 0
DWIDTH 19 0
BBX 15 39 0 0
BITMAP
0E00
3F9C
3FFE
7FFE
7FFC
79F8
00F0
0000
F01E
F01E
F81E
F81E
FC1E
FC1E
FC1E
FE1E
FE1E
FF1E
FF1E
FF9E
FF9E
FF9E
FFDE
FFDE
FBFE
FBFE
FBFE
F9FE
F9FE
F8FE
F8FE
F8FE
F87E
F87E
F83E
F83E
F83E
F81E
F01E
ENDCHAR
STARTCHAR Ograve
ENCODING 210
SWIDTH 406 0
DWIDTH 19 0
BBX 15 40 0 0
BITMAP
0C00
1F80
1FC0
0FF0
03F8
01F8
0078
0000
0000
07E0
1FF0
3FF8
7FFC
7FFC
F83E
F83E
F83E
F81E
F81E
F81E
F81E
F81E
F81E
F81E
F81E
F81E
F81E
F81E
F81E
F81E
F81E
F81E
F83E
F83E
F83E
7FFC
7FFC
3FF8
1FF0
07E0
ENDCHAR
STARTCHAR Oacute
ENCODING 211
SWIDTH 406 0
DWIDTH 19 0
BBX 15 40 0 0
BITMAP
0060
01F0
07F0
0FF0
1FC0
3F00
1C00
0000
0000
07E0
1FF0
3FF8
7FFC
7FFC
F83E
F83E
F83E
F81E
F81E
F81E
F81E
F81E
F81E
F81E
F81E
F81E
F81E
F81E
F81E
F81E
F81E
F81E
F83E
F83E
F83E
7FFC
7FFC
3FF8
1FF0
07E0
ENDCHAR
STARTCHAR Ocircumflex
ENCODING 212
SWIDTH 406 0
DWIDTH 19 0
BBX 15 40 0 0
BITMAP
0380
07C0
0FE0
1FF0
1FF8
3EF8
1E78
0000
0000
07E0
1FF0
3FF8
7FFC
7FFC
F83E
F83E
F83E
F81E
F81E
F81E
F81E
F81E
F81E
F81E
F81E
F81E
F81E
F81E
F81E
F81E
F81E
F81E
F83E
F83E
F83E
7FFC
7FFC
3FF8
1FF0
07E0
ENDCHAR
STARTCHAR Otilde
ENCODING 213
SWIDTH 406 0
DWIDTH 19 0
BBX 15 39 0 0
BITMAP
0E00
3F9C
7FFE
7FFE
FFFC
7BF8
0060
0000
07E0
1FF0
3FF8
7FFC
7FFC
F83E
F83E
F83E
F81E
F81E
F81E
F81E
F81E
F81E
F81E
F81E
F81E
F81E
F81E
F81E
F81E
F81E
F81E
F83E
F83E
F83E
7FFC
7FFC
3FF8
1FF0
07E0
ENDCHAR
STARTCHAR Odieresis
ENCODING 214
SWIDTH 406 0
DWIDTH 19 0
BBX 15 38 0 0
BITMAP
1E78
3E78
3EF8
3EF8
1E78
0000
0000
07E0
1FF0
3FF8
7FFC
7FFC
F83E
F83E
F83E
F81E
F81E
F81E
F81E
F81E
F81E
F81E
F81E
F81E
F81E
F81E
F81E
F81E
F81E
F81E
F83E
F83E
F83E
7FFC
7FFC
3FF8
1FF0
07E0
ENDCHAR
STARTCHAR multiply
ENCODING 215
SWIDTH 294 0
DWIDTH 14 0
BBX 11 11 0 10
BITMAP
71C0
FBE0
FFE0
FFE0
7FC0
3F80
7FC0
FFE0
FFE0
FBE0
71C0
ENDCHAR
STARTCHAR Oslash
ENCODING 216
SWIDTH 406 0
DWIDTH 19 0
BBX 16 31 0 0
BITMAP
07EE
1FFF
3FFF
7FFE
7FFE
F87E
F87E
F87E
F8FE
F8FE
F8FE
F9FE
F9FE
FBFE
FBFE
FBDE
FFDE
FFDE
FF9E
FF9E
FF1E
FF1E
FF1E
FE3E
FE3E
FC3E
7FFC
7FFC
FFF8
FFF0
F7E0
ENDCHAR
STARTCHAR Ugrave
ENCODING 217
SWIDTH 409 0
DWIDTH 19 0
BBX 15 40 0 0
BITMAP
0C00
1F00
1FC0
0FF0
07F8
01F8
0078
0000
0000
F01C
F03E
F03E
F03E
F03E
F03E
F03E
F03E
F03E
F03E
F03E
F03E
F03E
F03E
F03E
F03E
F03E
F03E
F03E
F03E
F03E
F03E
F03E
F03E
F83E
F87E
FFFC
7FFC
7FF8
3FF0
0FC0
ENDCHAR
STARTCHAR Uacute
ENCODING 218
SWIDTH 409 0
DWIDTH 19 0
BBX 15 40 0 0
BITMAP
0030
01F8
03F8
0FF0
1FE0
1F80
1E00
0000
0000
F01C
F03E
F03E
F03E
F03E
F03E
F03E
F03E
F03E
F03E
F03E
F03E
F03E
F03E
F03E
F03E
F03E
F03E
F03E
F03E
F03E
F03E
F03E
F03E
F83E
F87E
FFFC
7FFC
7FF8
3FF0
0FC0
ENDCHAR
STARTCHAR Ucircumflex
ENCODING 219
SWIDTH 409 0
DWIDTH 19 0
BBX 15 40 0 0
BITMAP
0300
07C0
0FC0
1FE0
3FF0
3FF0
3CF0
0000
0000
F01C
F03E
F03E
F03E
F03E
F03E
F03E
F03E
F03E
F03E
F03E
F03E
F03E
F03E
F03E
F03E
F03E
F03E
F03E
F03E
F03E
F03E
F03E
F03E
F83E
F87E
FFFC
7FFC
7FF8
3FF0
0FC0
ENDCHAR
STARTCHAR Udieresis
ENCODING 220
SWIDTH 409 0
DWIDTH 19 0
BBX 15 38 0 0
BITMAP
1C70
3EF8
3EF8
3EF8
1C70
0000
0000
F01C
F03E
F03E
F03E
F03E
F03E
F03E
F03E
F03E
F03E
F03E
F03E
F03E
F03E
F03E
F03E
F03E
F03E
F03E
F03E
F03E
F03E
F03E
F03E
F83E
F87E
FFFC
7FFC
7FF8
3FF0
0FC0
ENDCHAR
STARTCHAR Yacute
ENCODING 221
SWIDTH 406 0
DWIDTH 19 0
BBX 17 40 -1 0
BITMAP
001800
00FC00
01FC00
07F800
0FF000
0FC000
0F0000
000000
000000
700700
F80F80
FC0F80
7C1F00
7C1F00
3E3E00
3E3E00
1F7E00
1F7C00
1FFC00
0FF800
0FF800
07F000
07F000
03F000
03E000
03E000
03E000
03E000
03E000
03E000
03E000
03E000
03E000
03E000
03E000
03E000
03E000
03E000
03E000
01C000
ENDCHAR
STARTCHAR Thorn
ENCODING 222
SWIDTH 386 0
DWIDTH 18 0
BBX 17 31 0 0
BITMAP
F00000
F00000
F00000
F00000
F00000
F00000
F00000
F00000
FFF000
FFFC00
FFFE00
FFFF00
FFFF00
F01F80
F00F80
F00F80
F00F80
F01F80
FFFF00
FFFF00
FFFE00
FFFC00
FFF000
F00000
F00000
F00000
F00000
F00000
F00000
F00000
F00000
ENDCHAR
STARTCHAR germandbls
ENCODING 223
SWIDTH 376 0
DWIDTH 17 0
BBX 15 30 0 0
BITMAP
0F80
3FE0
7FF0
7FF8
FDF8
F8F8
F878
F078
F078
F078
F078
F0F8
F0F8
F7F0
F7F0
F7F0
F7F8
F1FC
F07C
F03C
F03E
F03E
F03E
F03E
F03C
F0FC
F7FC
F7F8
F7F0
F7E0
ENDCHAR
STARTCHAR agrave
ENCODING 224
SWIDTH 442 0
DWIDTH 20 0
BBX 17 40 0 0
BITMAP
060000
0FC000
0FE000
07F800
01FC00
00FC00
003C00
000000
000000
01C000
03E000
03E000
03E000
03F000
03F000
07F000
07F000
07F000
07F800
0FF800
0F7800
0F7800
0F7C00
1F7C00
1F7C00
1F3C00
1E3C00
1FFE00
3FFE00
3FFE00
3FFE00
3FFF00
7C1F00
7C1F00
7C0F00
780F80
F80F80
F80F80
F80F80
700780
ENDCHAR
STARTCHAR aacute
ENCODING 225
SWIDTH 442 0
DWIDTH 20 0
BBX 17 40 0 0
BITMAP
001800
00FC00
01FC00
07F800
0FF000
0FC000
0F0000
000000
000000
01C000
03E000
03E000
03E000
03F000
03F000
07F000
07F000
07F000
07F800
0FF800
0F7800
0F7800
0F7C00
1F7C00
1F7C00
1F3C00
1E3C00
1FFE00
3FFE00
3FFE00
3FFE00
3FFF00
7C1F00
7C1F00
7C0F00
780F80
F80F80
F80F80
F80F80
700780
ENDCHAR
STARTCHAR acircumflex
ENCODING 226
SWIDTH 442 0
DWIDTH 20 0
BBX 17 40 0 0
BITMAP
01C000
03E000
03F000
07F800
0FFC00
0FFC00
0F3C00
000000
000000
01C000
03E000
03E000
03E000
03F000
03F000
07F000
07F000
07F000
07F800
0FF800
0F7800
0F7800
0F7C00
1F7C00
1F7C00
1F3C00
1E3C00
1FFE00
3FFE00
3FFE00
3FFE00
3FFF00
7C1F00
7C1F00
7C0F00
780F80
F80F80
F80F80
F80F80
700780
ENDCHAR
STARTCHAR atilde
ENCODING 227
SWIDTH 442 0
DWIDTH 20 0
BBX 17 39 0 0
BITMAP
070000
1FCE00
1FFF00
3FFF00
3FFE00
3CFC00
007800
000000
01C000
03E000
03E000
03E000
03F000
03F000
07F000
07F000
07F000
07F800
0FF800
0F7800
0F7800
0F7C00
1F7C00
1F7C00
1F3C00
1E3C00
1FFE00
3FFE00
3FFE00
3FFE00
3FFF00
7C1F00
7C1F00
7C0F00
780F80
F80F80
F80F80
F80F80
700780
ENDCHAR
STARTCHAR adieresis
ENCODING 228
SWIDTH 442 0
DWIDTH 20 0
BBX 17 38 0 0
BITMAP
0F3C00
0F3C00
0F3C00
0F3C00
0F3C00
000000
000000
01C000
03E000
03E000
03E000
03F000
03F000
07F000
07F000
07F000
07F800
0FF800
0F7800
0F7800
0F7C00
1F7C00
1F7C00
1F3C00
1E3C00
1FFE00
3FFE00
3FFE00
3FFE00
3FFF00
7C1F00
7C1F00
7C0F00
780F80
F80F80
F80F80
F80F80
700780
ENDCHAR
STARTCHAR aring
ENCODING 229
SWIDTH 442 0
DWIDTH 20 0
BBX 17 40 0 0
BITMAP
00C000
03F000
03F000
033000
037000
03F000
01E000
000000
000000
01C000
03E000
03E000
03E000
03E000
03F000
07F000
07F000
07F000
07F800
0FF800
0F7800
0F7800
0F7C00
1F7C00
1F7C00
1F3C00
1E3C00
1FFE00
3FFE00
3FFE00
3FFE00
3FFF00
7C1F00
7C1F00
7C0F00
780F80
F80F80
F80F80
F80F80
700780
ENDCHAR
STARTCHAR ae
ENCODING 230
SWIDTH 665 0
DWIDTH 31 0
BBX 25 30 0 0
BITMAP
0007FF80
000FFF80
000FFF80
000FFF80
001FFF00
001F8000
003F8000
003F8000
007F8000
007F8000
00FF8000
00FF8000
01F78000
01F7FF80
01E7FF80
03E7FF80
03E7FF80
07FF8000
07FF8000
0FFF8000
0FFF8000
1FFF8000
1F078000
1E078000
3E078000
3C078000
7C07FF80
7807FF80
F807FF80
7007FF80
ENDCHAR
STARTCHAR ccedilla
ENCODING 231
SWIDTH 394 0
DWIDTH 18 0
BBX 15 41 0 -10
BITMAP
07C0
1FF0
3FF8
7FFC
7FFC
F83E
F83E
F83E
F83E
F83E
F81E
F800
F800
F800
F800
F800
F800
F800
F800
F800
F81E
F83E
F83E
F83E
F83E
F83E
7FFC
7FFC
3FF8
1FF0
07E0
0380
0380
03F0
03F8
03F8
007C
0FFC
0FF8
07F0
01C0
ENDCHAR
STARTCHAR egrave
ENCODING 232
SWIDTH 353 0
DWIDTH 16 0
BBX 13 40 0 0
BITMAP
1800
3F00
3F80
1FE0
07F0
03F0
0070
0000
0000
FFF8
FFF8
FFF8
FFF8
FFF0
F800
F800
F800
F800
F800
F800
F800
F800
FFE0
FFF0
FFF0
FFF0
FFF0
F800
F800
F800
F800
F800
F800
F800
F800
F800
FFF8
FFF8
FFF8
FFF8
ENDCHAR
STARTCHAR eacute
ENCODING 233
SWIDTH 353 0
DWIDTH 16 0
BBX 13 40 0 0
BITMAP
0060
03F0
07F0
1FE0
3F80
3F00
3C00
0000
0000
FFF8
FFF8
FFF8
FFF8
FFF0
F800
F800
F800
F800
F800
F800
F800
F800
FFE0
FFF0
FFF0
FFF0
FFE0
F800
F800
F800
F800
F800
F800
F800
F800
FFF0
FFF8
FFF8
FFF8
FFF8
ENDCHAR
STARTCHAR ecircumflex
ENCODING 234
SWIDTH 353 0
DWIDTH 16 0
BBX 13 40 0 0
BITMAP
0700
0F80
1FC0
3FE0
3FF0
7DF0
3DE0
0000
0000
FFF8
FFF8
FFF8
FFF8
FFF0
F800
F800
F800
F800
F800
F800
F800
F800
FFE0
FFF0
FFF0
FFF0
FFE0
F800
F800
F800
F800
F800
F800
F800
F800
FFF0
FFF8
FFF8
FFF8
FFF8
ENDCHAR
STARTCHAR edieresis
ENCODING 235
SWIDTH 353 0
DWIDTH 16 0
BBX 13 38 0 0
BITMAP
3CF0
3CF0
3CF0
3CF0
3CF0
0000
0000
FFF8
FFF8
FFF8
FFF8
FFF0
F800
F800
F800
F800
F800
F800
F800
F800
FFE0
FFF0
FFF0
FFF0
FFE0
F800
F800
F800
F800
F800
F800
F800
F800
FFF0
FFF8
FFF8
FFF8
FFF8
ENDCHAR
STARTCHAR igrave
ENCODING 236
SWIDTH 159 0
DWIDTH 7 0
BBX 10 40 -2 0
BITMAP
6000
F800
FE00
7F80
3FC0
0FC0
03C0
0000
0000
3C00
3C00
3C00
3C00
3C00
3C00
3C00
3C00
3C00
3C00
3C00
3C00
3C00
3C00
3C00
3C00
3C00
3C00
3C00
3C00
3C00
3C00
3C00
3C00
3C00
3C00
3C00
3C00
3C00
3C00
3C00
ENDCHAR
STARTCHAR iacute
ENCODING 237
SWIDTH 159 0
DWIDTH 7 0
BBX 11 40 -3 0
BITMAP
00C0
07E0
1FE0
3FC0
7F00
FC00
7000
0000
0000
1E00
1E00
1E00
1E00
1E00
1E00
1E00
1E00
1E00
1E00
1E00
1E00
1E00
1E00
1E00
1E00
1E00
1E00
1E00
1E00
1E00
1E00
1E00
1E00
1E00
1E00
1E00
1E00
1E00
1E00
1E00
ENDCHAR
STARTCHAR icircumflex
ENCODING 238
SWIDTH 159 0
DWIDTH 7 0
BBX 11 40 -3 0
BITMAP
0E00
1F00
3F80
7FC0
FFC0
FBE0
F3C0
0000
0000
1E00
1E00
1E00
1E00
1E00
1E00
1E00
1E00
1E00
1E00
1E00
1E00
1E00
1E00
1E00
1E00
1E00
1E00
1E00
1E00
1E00
1E00
1E00
1E00
1E00
1E00
1E00
1E00
1E00
1E00
1E00
ENDCHAR
STARTCHAR idieresis
ENCODING 239
SWIDTH 159 0
DWIDTH 7 0
BBX 11 38 -3 0
BITMAP
71E0
FBE0
FBE0
FBE0
71E0
0000
0000
1E00
1E00
1E00
1E00
1E00
1E00
1E00
1E00
1E00
1E00
1E00
1E00
1E00
1E00
1E00
1E00
1E00
1E00
1E00
1E00
1E00
1E00
1E00
1E00
1E00
1E00
1E00
1E00
1E00
1E00
1E00
ENDCHAR
STARTCHAR eth
ENCODING 240
SWIDTH 398 0
DWIDTH 18 0
BBX 18 30 -4 0
BITMAP
07F800
0FFE00
0FFF00
0FFF80
0FFF80
0F87C0
0F87C0
0F87C0
0F83C0
0F83C0
0F83C0
0F83C0
0F83C0
7FFBC0
FFFBC0
FFFBC0
FFFBC0
0F83C0
0F83C0
0F83C0
0F83C0
0F83C0
0F83C0
0F87C0
0F87C0
0F9F80
0FFF80
0FFF00
0FFE00
07FC00
ENDCHAR
STARTCHAR ntilde
ENCODING 241
SWIDTH 410 0
DWIDTH 19 0
BBX 15 39 0 0
BITMAP
0E00
3F9C
3FFE
7FFE
7FFC
79F8
00F0
0000
F01E
F01E
F81E
F81E
FC1E
FC1E
FC1E
FE1E
FE1E
FF1E
FF1E
FF9E
FF9E
FF9E
FFDE
FFDE
FBFE
FBFE
FBFE
F9FE
F9FE
F8FE
F8FE
F8FE
F87E
F87E
F83E
F83E
F83E
F81E
F01E
ENDCHAR
STARTCHAR ograve
ENCODING 242
SWIDTH 406 0
DWIDTH 19 0
BBX 15 40 0 0
BITMAP
0C00
1F80
1FC0
0FF0
03F8
01F8
0078
0000
0000
07E0
1FF0
3FF8
7FFC
7FFC
F83E
F83E
F83E
F81E
F81E
F81E
F81E
F81E
F81E
F81E
F81E
F81E
F81E
F81E
F81E
F81E
F81E
F81E
F83E
F83E
F83E
7FFC
7FFC
3FF8
1FF0
07E0
ENDCHAR
STARTCHAR oacute
ENCODING 243
SWIDTH 406 0
DWIDTH 19 0
BBX 15 40 0 0
BITMAP
0030
01F8
03F8
0FF0
1FE0
1F80
1E00
0000
0000
07E0
1FF0
3FF8
7FFC
7FFC
F83E
F83E
F83E
F81E
F81E
F81E
F81E
F81E
F81E
F81E
F81E
F81E
F81E
F81E
F81E
F81E
F81E
F81E
F83E
F83E
F83E
7FFC
7FFC
3FF8
1FF0
07E0
ENDCHAR
STARTCHAR ocircumflex
ENCODING 244
SWIDTH 406 0
DWIDTH 19 0
BBX 15 40 0 0
BITMAP
0380
07C0
0FE0
1FF0
1FF8
3EF8
1E78
0000
0000
07E0
1FF0
3FF8
7FFC
7FFC
F83E
F83E
F83E
F81E
F81E
F81E
F81E
F81E
F81E
F81E
F81E
F81E
F81E
F81E
F81E
F81E
F81E
F81E
F83E
F83E
F83E
7FFC
7FFC
3FF8
1FF0
07E0
ENDCHAR
STARTCHAR otilde
ENCODING 245
SWIDTH 406 0
DWIDTH 19 0
BBX 15 39 0 0
BITMAP
0E00
3F9C
7FFE
7FFE
FFFC
7BF8
0060
0000
07E0
1FF0
3FF8
7FFC
7FFC
F83E
F83E
F83E
F81E
F81E
F81E
F81E
F81E
F81E
F81E
F81E
F81E
F81E
F81E
F81E
F81E
F81E
F81E
F83E
F83E
F83E
7FFC
7FFC
3FF8
1FF0
07E0
ENDCHAR
STARTCHAR odieresis
ENCODING 246
SWIDTH 406 0
DWIDTH 19 0
BBX 15 38 0 0
BITMAP
1E78
3E78
3EF8
3EF8
1E78
0000
0000
07E0
1FF0
3FF8
7FFC
7FFC
F83E
F83E
F83E
F81E
F81E
F81E
F81E
F81E
F81E
F81E
F81E
F81E
F81E
F81E
F81E
F81E
F81E
F81E
F83E
F83E
F83E
7FFC
7FFC
3FF8
1FF0
07E0
ENDCHAR
STARTCHAR divide
ENCODING 247
SWIDTH 163 0
DWIDTH 8 0
BBX 5 18 0 7
BITMAP
60
F0
F8
F8
F8
F0
60
00
00
00
00
00
F0
F8
F8
F8
F0
F0
ENDCHAR
STARTCHAR oslash
ENCODING 248
SWIDTH 406 0
DWIDTH 19 0
BBX 16 31 0 0
BITMAP
07EE
1FFF
3FFF
7FFE
7FFE
F87E
F87E
F87E
F8FE
F8FE
F8FE
F9FE
F9FE
FBFE
FBFE
FBDE
FFDE
FFDE
FF9E
FF9E
FF1E
FF1E
FF1E
FE3E
FE3E
FC3E
7FFC
7FFC
FFF8
FFF0
F7E0
ENDCHAR
STARTCHAR ugrave
ENCODING 249
SWIDTH 409 0
DWIDTH 19 0
BBX 15 40 0 0
BITMAP
0C00
1F00
1FC0
0FF0
07F8
01F8
0078
0000
0000
F01C
F03E
F03E
F03E
F03E
F03E
F03E
F03E
F03E
F03E
F03E
F03E
F03E
F03E
F03E
F03E
F03E
F03E
F03E
F03E
F03E
F03E
F03E
F03E
F83E
F87E
FFFC
7FFC
7FF8
3FF0
0FC0
ENDCHAR
STARTCHAR uacute
ENCODING 250
SWIDTH 409 0
DWIDTH 19 0
BBX 15 40 0 0
BITMAP
0030
01F8
03F8
0FF0
1FE0
1F80
1E00
0000
0000
F01C
F03E
F03E
F03E
F03E
F03E
F03E
F03E
F03E
F03E
F03E
F03E
F03E
F03E
F03E
F03E
F03E
F03E
F03E
F03E
F03E
F03E
F03E
F03E
F83E
F87E
FFFC
7FFC
7FF8
3FF0
0FC0
ENDCHAR
STARTCHAR ucircumflex
ENCODING 251
SWIDTH 409 0
DWIDTH 19 0
BBX 15 40 0 0
BITMAP
0300
07C0
0FC0
1FE0
3FF0
3FF0
3CF0
0000
0000
F01C
F03E
F03E
F03E
F03E
F03E
F03E
F03E
F03E
F03E
F03E
F03E
F03E
F03E
F03E
F03E
F03E
F03E
F03E
F03E
F03E
F03E
F03E
F03E
F83E
F87E
FFFC
7FFC
7FF8
3FF0
0FC0
ENDCHAR
STARTCHAR udieresis
ENCODING 252
SWIDTH 409 0
DWIDTH 19 0
BBX 15 38 0 0
BITMAP
1C70
3EF8
3EF8
3EF8
1C70
0000
0000
F01C
F03E
F03E
F03E
F03E
F03E
F03E
F03E
F03E
F03E
F03E
F03E
F03E
F03E
F03E
F03E
F03E
F03E
F03E
F03E
F03E
F03E
F03E
F03E
F83E
F87E
FFFC
7FFC
7FF8
3FF0
0FC0
ENDCHAR
STARTCHAR yacute
ENCODING 253
SWIDTH 406 0
DWIDTH 19 0
BBX 17 40 -1 0
BITMAP
001800
00FC00
01FC00
07F800
0FF000
0FC000
0F0000
000000
000000
700700
F80F80
FC0F80
7C1F00
7C1F00
3E3E00
3E3E00
1F7E00
1F7C00
1FFC00
0FF800
0FF800
07F000
07F000
03F000
03E000
03E000
03E000
03E000
03E000
03E000
03E000
03E000
03E000
03E000
03E000
03E000
03E000
03E000
03E000
01C000
ENDCHAR
STARTCHAR thorn
ENCODING 254
SWIDTH 386 0
DWIDTH 18 0
BBX 16 30 0 0
BITMAP
7000
F000
F000
F000
F000
F000
F000
F000
FFF8
FFFC
FFFE
FFFF
F03F
F00F
F00F
F00F
F00F
F03F
FFFF
FFFE
FFFC
FFF8
F000
F000
F000
F000
F000
F000
F000
F000
ENDCHAR
STARTCHAR ydieresis
ENCODING 255
SWIDTH 406 0
DWIDTH 19 0
BBX 17 38 -1 0
BITMAP
0F3C00
1F3C00
1F7C00
1F7C00
0F3C00
000000
000000
700700
F80F80
FC0F80
7C1F00
7C1F00
3E3E00
3E3E00
1F7E00
1F7C00
1FFC00
0FF800
0FF800
07F000
07F000
03F000
03E000
03E000
03E000
03E000
03E000
03E000
03E000
03E000
03E000
03E000
03E000
03E000
03E000
03E000
03E000
01C000
ENDCHAR
STARTCHAR Amacron
ENCODING 256
SWIDTH 442 0
DWIDTH 20 0
BBX 17 38 0 0
BITMAP
07F000
0FFC00
0FFC00
0FFC00
0FFC00
000000
000000
01C000
03E000
03E000
03E000
03F000
03F000
07F000
07F000
07F000
07F800
0FF800
0F7800
0F7800
0F7C00
1F7C00
1F7C00
1F3C00
1E3C00
1FFE00
3FFE00
3FFE00
3FFE00
3FFF00
7C1F00
7C1F00
7C0F00
780F80
F80F80
F80F80
F80F80
700780
ENDCHAR
STARTCHAR amacron
ENCODING 257
SWIDTH 442 0
DWIDTH 20 0
BBX 17 38 0 0
BITMAP
07F000
0FFC00
0FFC00
0FFC00
0FFC00
000000
000000
01C000
03E000
03E000
03E000
03F000
03F000
07F000
07F000
07F000
07F800
0FF800
0F7800
0F7800
0F7C00
1F7C00
1F7C00
1F3C00
1E3C00
1FFE00
3FFE00
3FFE00
3FFE00
3FFF00
7C1F00
7C1F00
7C0F00
780F80
F80F80
F80F80
F80F80
700780
ENDCHAR
STARTCHAR Cacute
ENCODING 262
SWIDTH 394 0
DWIDTH 18 0
BBX 15 40 0 0
BITMAP
0030
00F8
03F8
0FF0
1FE0
1F80
1E00
0000
0000
07C0
1FF0
3FF8
7FFC
7FFC
F83E
F83E
F83E
F83E
F83E
F81E
F800
F800
F800
F800
F800
F800
F800
F800
F800
F81E
F83E
F83E
F83E
F83E
F83E
7FFC
7FFC
3FF8
1FF0
07E0
ENDCHAR
STARTCHAR cacute
ENCODING 263
SWIDTH 394 0
DWIDTH 18 0
BBX 15 40 0 0
BITMAP
0030
00F8
03F8
0FF0
1FE0
1F80
1E00
0000
0000
07C0
1FF0
3FF8
7FFC
7FFC
F83E
F83E
F83E
F83E
F83E
F81E
F800
F800
F800
F800
F800
F800
F800
F800
F800
F81E
F83E
F83E
F83E
F83E
F83E
7FFC
7FFC
3FF8
1FF0
07E0
ENDCHAR
STARTCHAR Ccircumflex
ENCODING 264
SWIDTH 394 0
DWIDTH 18 0
BBX 15 40 0 0
BITMAP
0380
07C0
0FE0
1FF0
1FF0
3EF8
1EF0
0000
0000
07C0
1FF0
3FF8
7FFC
7FFC
F83E
F83E
F83E
F83E
F83E
F81E
F800
F800
F800
F800
F800
F800
F800
F800
F800
F81E
F83E
F83E
F83E
F83E
F83E
7FFC
7FFC
3FF8
1FF0
07E0
ENDCHAR
STARTCHAR ccircumflex
ENCODING 265
SWIDTH 394 0
DWIDTH 18 0
BBX 15 40 0 0
BITMAP
0380
07C0
0FE0
1FF0
1FF0
3EF8
1EF0
0000
0000
07C0
1FF0
3FF8
7FFC
7FFC
F83E
F83E
F83E
F83E
F83E
F81E
F800
F800
F800
F800
F800
F800
F800
F800
F800
F81E
F83E
F83E
F83E
F83E
F83E
7FFC
7FFC
3FF8
1FF0
07E0
ENDCHAR
STARTCHAR Cdotaccent
ENCODING 266
SWIDTH 394 0
DWIDTH 18 0
BBX 15 38 0 0
BITMAP
0380
07C0
07C0
07C0
07C0
0000
0000
07C0
1FF0
3FF8
7FFC
7FFC
F83E
F83E
F83E
F83E
F83E
F81E
F800
F800
F800
F800
F800
F800
F800
F800
F800
F81E
F83E
F83E
F83E
F83E
F83E
7FFC
7FFC
3FF8
1FF0
07E0
ENDCHAR
STARTCHAR cdotaccent
ENCODING 267
SWIDTH 394 0
DWIDTH 18 0
BBX 15 38 0 0
BITMAP
0380
07C0
07C0
07C0
07C0
0000
0000
07C0
1FF0
3FF8
7FFC
7FFC
F83E
F83E
F83E
F83E
F83E
F81E
F800
F800
F800
F800
F800
F800
F800
F800
F800
F81E
F83E
F83E
F83E
F83E
F83E
7FFC
7FFC
3FF8
1FF0
07E0
ENDCHAR
STARTCHAR Ccaron
ENCODING 268
SWIDTH 394 0
DWIDTH 18 0
BBX 15 40 0 0
BITMAP
1C70
3EF8
3FF8
1FF0
0FE0
07C0
03C0
0000
0000
07C0
1FF0
3FF8
7FFC
7FFC
F83E
F83E
F83E
F83E
F83E
F81E
F800
F800
F800
F800
F800
F800
F800
F800
F800
F81E
F83E
F83E
F83E
F83E
F83E
7FFC
7FFC
3FF8
1FF0
07E0
ENDCHAR
STARTCHAR ccaron
ENCODING 269
SWIDTH 394 0
DWIDTH 18 0
BBX 15 40 0 0
BITMAP
1C70
3EF8
3FF8
1FF0
0FE0
07C0
03C0
0000
0000
07C0
1FF0
3FF8
7FFC
7FFC
F83E
F83E
F83E
F83E
F83E
F81E
F800
F800
F800
F800
F800
F800
F800
F800
F800
F81E
F83E
F83E
F83E
F83E
F83E
7FFC
7FFC
3FF8
1FF0
07E0
ENDCHAR
STARTCHAR Dcaron
ENCODING 270
SWIDTH 398 0
DWIDTH 18 0
BBX 15 40 0 0
BITMAP
38E0
7DF0
7FF0
3FE0
1FC0
0FC0
0780
0000
0000
7FC0
FFF0
FFF8
FFF8
FFFC
F87C
F83C
F83C
F83E
F83E
F83E
F83E
F83E
F83E
F83E
F83E
F83E
F83E
F83E
F83E
F83E
F83E
F83E
F83C
F83C
F87C
FFFC
FFF8
FFF8
FFF0
7FC0
ENDCHAR
STARTCHAR dcaron
ENCODING 271
SWIDTH 398 0
DWIDTH 18 0
BBX 15 40 0 0
BITMAP
38E0
7DF0
7FF0
3FE0
1FC0
0FC0
0780
0000
0000
7FC0
FFF0
FFF8
FFF8
FFFC
F87C
F83C
F83C
F83E
F83E
F83E
F83E
F83E
F83E
F83E
F83E
F83E
F83E
F83E
F83E
F83E
F83E
F83E
F83C
F83C
F87C
FFFC
FFF8
FFF8
FFF0
7FC0
ENDCHAR
STARTCHAR Dcroat
ENCODING 272
SWIDTH 418 0
DWIDTH 19 0
BBX 18 31 -1 0
BITMAP
0FF800
0FFE00
0FFF00
0FFF80
0FFF80
0F0FC0
0F07C0
0F07C0
0F07C0
0F07C0
0F07C0
0F07C0
0F07C0
7FE7C0
FFF7C0
FFF7C0
FFF7C0
7FE7C0
0F07C0
0F07C0
0F07C0
0F07C0
0F07C0
0F07C0
0F07C0
0F0FC0
0FFF80
0FFF80
0FFF00
0FFE00
0FF800
ENDCHAR
STARTCHAR dcroat
ENCODING 273
SWIDTH 418 0
DWIDTH 19 0
BBX 17 30 0 0
BITMAP
1FF000
1FFC00
1FFE00
1FFF00
1FFF00
1E1F00
1E0F00
1E0F80
1E0F80
1E0F80
1E0F80
1E0F80
1E0F80
FFCF80
FFEF80
FFEF80
FFEF80
1E0F80
1E0F80
1E0F80
1E0F80
1E0F80
1E0F80
1E0F00
1E1F00
1E7F00
1FFF00
1FFE00
1FFC00
1FF000
ENDCHAR
STARTCHAR Emacron
ENCODING 274
SWIDTH 353 0
DWIDTH 16 0
BBX 13 38 0 0
BITMAP
1FE0
3FF0
7FF0
7FF0
3FE0
0000
0000
FFF8
FFF8
FFF8
FFF8
FFF0
F800
F800
F800
F800
F800
F800
F800
F800
FFE0
FFF0
FFF0
FFF0
FFE0
F800
F800
F800
F800
F800
F800
F800
F800
FFF0
FFF8
FFF8
FFF8
FFF8
ENDCHAR
STARTCHAR emacron
ENCODING 275
SWIDTH 353 0
DWIDTH 16 0
BBX 13 38 0 0
BITMAP
1FE0
3FF0
7FF0
7FF0
3FE0
0000
0000
FFF8
FFF8
FFF8
FFF8
FFF0
F800
F800
F800
F800
F800
F800
F800
F800
FFE0
FFF0
FFF0
FFF0
FFE0
F800
F800
F800
F800
F800
F800
F800
F800
FFF0
FFF8
FFF8
FFF8
FFF8
ENDCHAR
STARTCHAR Ebreve
ENCODING 276
SWIDTH 353 0
DWIDTH 16 0
BBX 13 39 0 0
BITMAP
78E0
7FF0
7FF0
7FE0
3FE0
0F80
0000
0000
FFF8
FFF8
FFF8
FFF8
FFF0
F800
F800
F800
F800
F800
F800
F800
F800
FFE0
FFF0
FFF0
FFF0
FFE0
F800
F800
F800
F800
F800
F800
F800
F800
FFF0
FFF8
FFF8
FFF8
FFF8
ENDCHAR
STARTCHAR ebreve
ENCODING 277
SWIDTH 353 0
DWIDTH 16 0
BBX 13 39 0 0
BITMAP
78E0
7FF0
7FF0
7FE0
3FE0
0F80
0000
0000
FFF8
FFF8
FFF8
FFF8
FFF0
F800
F800
F800
F800
F800
F800
F800
F800
FFE0
FFF0
FFF0
FFF0
FFE0
F800
F800
F800
F800
F800
F800
F800
F800
FFF0
FFF8
FFF8
FFF8
FFF8
ENDCHAR
STARTCHAR Edotaccent
ENCODING 278
SWIDTH 353 0
DWIDTH 16 0
BBX 13 38 0 0
BITMAP
0300
0780
0780
0780
0780
0000
0000
FFF8
FFF8
FFF8
FFF8
FFF0
F800
F800
F800
F800
F800
F800
F800
F800
FFE0
FFF0
FFF0
FFF0
FFE0
F800
F800
F800
F800
F800
F800
F800
F800
FFF0
FFF8
FFF8
FFF8
FFF8
ENDCHAR
STARTCHAR edotaccent
ENCODING 279
SWIDTH 353 0
DWIDTH 16 0
BBX 13 38 0 0
BITMAP
0300
0780
0780
0780
0780
0000
0000
FFF8
FFF8
FFF8
FFF8
FFF0
F800
F800
F800
F800
F800
F800
F800
F800
FFE0
FFF0
FFF0
FFF0
FFE0
F800
F800
F800
F800
F800
F800
F800
F800
FFF0
FFF8
FFF8
FFF8
FFF8
ENDCHAR
STARTCHAR Ecaron
ENCODING 282
SWIDTH 353 0
DWIDTH 16 0
BBX 13 40 0 0
BITMAP
18E0
3DF0
3FF0
3FE0
1FE0
0FC0
0780
0000
0000
FFF8
FFF8
FFF8
FFF8
FFF0
F800
F800
F800
F800
F800
F800
F800
F800
FFE0
FFF0
FFF0
FFF0
FFE0
F800
F800
F800
F800
F800
F800
F800
F800
FFF0
FFF8
FFF8
FFF8
FFF8
ENDCHAR
STARTCHAR ecaron
ENCODING 283
SWIDTH 353 0
DWIDTH 16 0
BBX 13 40 0 0
BITMAP
18E0
3DF0
3FF0
3FE0
1FE0
0FC0
0780
0000
0000
FFF8
FFF8
FFF8
FFF8
FFF0
F800
F800
F800
F800
F800
F800
F800
F800
FFE0
FFF0
FFF0
FFF0
FFE0
F800
F800
F800
F800
F800
F800
F800
F800
FFF0
FFF8
FFF8
FFF8
FFF8
ENDCHAR
STARTCHAR Gcircumflex
ENCODING 284
SWIDTH 402 0
DWIDTH 18 0
BBX 15 40 0 0
BITMAP
0380
07C0
0FE0
1FF0
1FF0
3EF8
1EF0
0000
0000
07E0
1FF8
3FF8
7FFC
7FFE
F83E
F83E
F83E
F81E
F81E
F81E
F800
F800
F800
F800
F87C
F9FE
F9FE
F9FE
F8FE
F81E
F81E
F81E
F83E
F83E
F83E
7FFE
7FFC
3FF8
1FF8
0FE0
ENDCHAR
STARTCHAR gcircumflex
ENCODING 285
SWIDTH 402 0
DWIDTH 18 0
BBX 15 40 0 0
BITMAP
0380
07C0
0FE0
1FF0
3FF0
3EF8
3EF0
0000
0000
07E0
1FF8
3FF8
7FFC
7FFE
F83E
F83E
F83E
F81E
F81E
F81E
F800
F800
F800
F800
F87C
F9FE
F9FE
F9FE
F8FE
F81E
F81E
F81E
F83E
F83E
F83E
7FFE
7FFC
3FF8
1FF8
0FE0
ENDCHAR
STARTCHAR Gbreve
ENCODING 286
SWIDTH 402 0
DWIDTH 18 0
BBX 15 39 0 0
BITMAP
3C70
3FF8
3FF8
3FF0
1FF0
07C0
0000
0000
07E0
1FF8
3FF8
7FFC
7FFE
F83E
F83E
F83E
F81E
F81E
F81E
F800
F800
F800
F800
F87C
F9FE
F9FE
F9FE
F8FE
F81E
F81E
F81E
F83E
F83E
F83E
7FFE
7FFC
3FF8
1FF8
0FE0
ENDCHAR
STARTCHAR gbreve
ENCODING 287
SWIDTH 402 0
DWIDTH 18 0
BBX 15 39 0 0
BITMAP
1C78
3FF8
3FF8
1FF8
1FF0
07C0
0000
0000
07E0
1FF8
3FF8
7FFC
7FFE
F83E
F83E
F83E
F81E
F81E
F81E
F800
F800
F800
F800
F87C
F9FE
F9FE
F9FE
F8FE
F81E
F81E
F81E
F83E
F83E
F83E
7FFE
7FFC
3FF8
1FF8
0FE0
ENDCHAR
STARTCHAR Gdotaccent
ENCODING 288
SWIDTH 402 0
DWIDTH 18 0
BBX 15 38 0 0
BITMAP
0180
03C0
07C0
07C0
03C0
0000
0000
07E0
1FF8
3FF8
7FFC
7FFE
F83E
F83E
F83E
F81E
F81E
F81E
F800
F800
F800
F800
F87C
F9FE
F9FE
F9FE
F8FE
F81E
F81E
F81E
F83E
F83E
F83E
7FFE
7FFC
3FF8
1FF8
0FE0
ENDCHAR
STARTCHAR gdotaccent
ENCODING 289
SWIDTH 402 0
DWIDTH 18 0
BBX 15 38 0 0
BITMAP
0180
03C0
07C0
07C0
03C0
0000
0000
07E0
1FF8
3FF8
7FFC
7FFE
F83E
F83E
F83E
F81E
F81E
F81E
F800
F800
F800
F800
F87C
F9FE
F9FE
F9FE
F8FE
F81E
F81E
F81E
F83E
F83E
F83E
7FFE
7FFC
3FF8
1FF8
0FE0
ENDCHAR
STARTCHAR Gcommaaccent
ENCODING 290
SWIDTH 402 0
DWIDTH 18 0
BBX 15 40 0 -9
BITMAP
07C0
1FF0
3FF8
7FFC
7FFC
FC3E
F83E
F83E
F81E
F81E
F81E
F800
F800
F800
F800
F800
F9FE
F9FE
F9FE
F9FE
F81E
F81E
F81E
F81E
F83E
F83E
7EFE
7FFC
3FFC
3FF8
0FE0
0000
0000
01C0
03C0
03C0
03C0
03C0
03C0
0180
ENDCHAR
STARTCHAR gcommaaccent
ENCODING 291
SWIDTH 402 0
DWIDTH 18 0
BBX 15 40 0 -9
BITMAP
07C0
1FF0
3FF8
7FFC
7FFC
FC3E
F83E
F83E
F81E
F81E
F81E
F800
F800
F800
F800
F800
F9FE
F9FE
F9FE
F9FE
F81E
F81E
F81E
F81E
F83E
F83E
7EFE
7FFC
3FFC
3FF8
0FE0
0000
0000
01C0
03C0
03C0
03C0
03C0
03C0
0180
ENDCHAR
STARTCHAR Hcircumflex
ENCODING 292
SWIDTH 394 0
DWIDTH 18 0
BBX 14 40 0 0
BITMAP
0380
07C0
0FE0
1FE0
3FF0
3FF0
3CF0
0000
0000
F03C
F83C
F83C
F83C
F83C
F83C
F83C
F83C
F83C
F83C
F83C
F83C
F83C
FFFC
FFFC
FFFC
FFFC
FFFC
F83C
F83C
F83C
F83C
F83C
F83C
F83C
F83C
F83C
F83C
F83C
F83C
F03C
ENDCHAR
STARTCHAR hcircumflex
ENCODING 293
SWIDTH 394 0
DWIDTH 18 0
BBX 14 40 0 0
BITMAP
0380
07C0
0FE0
1FE0
3FF0
3FF0
3CF0
0000
0000
F03C
F83C
F83C
F83C
F83C
F83C
F83C
F83C
F83C
F83C
F83C
F83C
F83C
FFFC
FFFC
FFFC
FFFC
FFFC
F83C
F83C
F83C
F83C
F83C
F83C
F83C
F83C
F83C
F83C
F83C
F83C
F03C
ENDCHAR
STARTCHAR Itilde
ENCODING 296
SWIDTH 159 0
DWIDTH 7 0
BBX 14 39 -5 0
BITMAP
1C00
3F3C
7FFC
FFFC
FFF8
F3F8
00E0
0000
0780
0780
0780
0780
0780
0780
0780
0780
0780
0780
0780
0780
0780
0780
0780
0780
0780
0780
0780
0780
0780
0780
0780
0780
0780
0780
0780
0780
0780
0780
0780
ENDCHAR
STARTCHAR itilde
ENCODING 297
SWIDTH 159 0
DWIDTH 7 0
BBX 14 39 -5 0
BITMAP
1C00
3F3C
7FFC
FFFC
FFF8
F3F8
00E0
0000
0780
0780
0780
0780
0780
0780
0780
0780
0780
0780
0780
0780
0780
0780
0780
0780
0780
0780
0780
0780
0780
0780
0780
0780
0780
0780
0780
0780
0780
0780
0780
ENDCHAR
STARTCHAR Imacron
ENCODING 298
SWIDTH 159 0
DWIDTH 7 0
BBX 10 38 -3 0
BITMAP
7F80
FFC0
FFC0
FFC0
FFC0
0000
0000
1E00
1E00
1E00
1E00
1E00
1E00
1E00
1E00
1E00
1E00
1E00
1E00
1E00
1E00
1E00
1E00
1E00
1E00
1E00
1E00
1E00
1E00
1E00
1E00
1E00
1E00
1E00
1E00
1E00
1E00
1E00
ENDCHAR
STARTCHAR imacron
ENCODING 299
SWIDTH 159 0
DWIDTH 7 0
BBX 10 38 -3 0
BITMAP
7F80
FFC0
FFC0
FFC0
FFC0
0000
0000
1E00
1E00
1E00
1E00
1E00
1E00
1E00
1E00
1E00
1E00
1E00
1E00
1E00
1E00
1E00
1E00
1E00
1E00
1E00
1E00
1E00
1E00
1E00
1E00
1E00
1E00
1E00
1E00
1E00
1E00
1E00
ENDCHAR
STARTCHAR Ibreve
ENCODING 300
SWIDTH 159 0
DWIDTH 7 0
BBX 10 39 -3 0
BITMAP
F3C0
FFC0
FFC0
FFC0
7F80
3F00
0000
0000
1E00
1E00
1E00
1E00
1E00
1E00
1E00
1E00
1E00
1E00
1E00
1E00
1E00
1E00
1E00
1E00
1E00
1E00
1E00
1E00
1E00
1E00
1E00
1E00
1E00
1E00
1E00
1E00
1E00
1E00
1E00
ENDCHAR
STARTCHAR ibreve
ENCODING 301
SWIDTH 159 0
DWIDTH 7 0
BBX 10 39 -3 0
BITMAP
F3C0
FFC0
FFC0
FFC0
7F80
3F00
0000
0000
1E00
1E00
1E00
1E00
1E00
1E00
1E00
1E00
1E00
1E00
1E00
1E00
1E00
1E00
1E00
1E00
1E00
1E00
1E00
1E00
1E00
1E00
1E00
1E00
1E00
1E00
1E00
1E00
1E00
1E00
1E00
ENDCHAR
STARTCHAR Idotaccent
ENCODING 304
SWIDTH 159 0
DWIDTH 7 0
BBX 5 38 0 0
BITMAP
60
F0
F8
F8
F0
00
00
F0
F0
F0
F0
F0
F0
F0
F0
F0
F0
F0
F0
F0
F0
F0
F0
F0
F0
F0
F0
F0
F0
F0
F0
F0
F0
F0
F0
F0
F0
F0
ENDCHAR
STARTCHAR dotlessi
ENCODING 305
SWIDTH 159 0
DWIDTH 7 0
BBX 5 30 0 0
BITMAP
70
F8
F8
F8
F8
F8
F8
F8
F8
F8
F8
F8
F8
F8
F8
F8
F8
F8
F8
F8
F8
F8
F8
F8
F8
F8
F8
F8
F8
70
ENDCHAR
STARTCHAR Jcircumflex
ENCODING 308
SWIDTH 374 0
DWIDTH 17 0
BBX 18 40 0 0
BITMAP
001C00
003E00
007F00
00FF00
01FF80
01FFC0
01E780
000000
000000
003800
007C00
007C00
007C00
007C00
007C00
007C00
007C00
007C00
007C00
007C00
007C00
007C00
007C00
007C00
007C00
007C00
007C00
007C00
007C00
607C00
F07C00
F07C00
F07C00
F07C00
F87C00
FFF800
FFF800
7FF000
3FF000
0FC000
ENDCHAR
STARTCHAR jcircumflex
ENCODING 309
SWIDTH 374 0
DWIDTH 17 0
BBX 18 40 0 0
BITMAP
001C00
003E00
007F00
00FF00
01FF80
01FFC0
01E780
000000
000000
003800
007C00
007C00
007C00
007C00
007C00
007C00
007C00
007C00
007C00
007C00
007C00
007C00
007C00
007C00
007C00
007C00
007C00
007C00
007C00
607C00
F07C00
F07C00
F07C00
F07C00
F87C00
FFF800
FFF800
7FF000
3FF000
0FC000
ENDCHAR
STARTCHAR Kcommaaccent
ENCODING 310
SWIDTH 388 0
DWIDTH 18 0
BBX 16 40 0 -9
BITMAP
F01E
F81F
F83F
F83E
F87C
F8FC
F8F8
F9F8
F9F0
FBE0
FFE0
FFC0
FF80
FF80
FF00
FF00
FF80
FF80
FFC0
FFE0
FBE0
FBF0
F9F0
F9F8
F8F8
F87C
F87E
F83E
F83F
F81F
F00E
0000
0000
03C0
07C0
07C0
07C0
07C0
07C0
0380
ENDCHAR
STARTCHAR kcommaaccent
ENCODING 311
SWIDTH 388 0
DWIDTH 18 0
BBX 16 40 0 -9
BITMAP
F01E
F81F
F83F
F83E
F87C
F8FC
F8F8
F9F8
F9F0
FBE0
FFE0
FFC0
FF80
FF80
FF00
FF00
FF80
FF80
FFC0
FFE0
FBE0
FBF0
F9F0
F9F8
F8F8
F87C
F87E
F83E
F83F
F81F
F00E
0000
0000
03C0
07C0
07C0
07C0
07C0
07C0
0380
ENDCHAR
STARTCHAR Lacute
ENCODING 313
SWIDTH 335 0
DWIDTH 15 0
BBX 16 40 -3 0
BITMAP
0180
0FC0
1FC0
7F80
FE00
FC00
F000
0000
0000
1E00
1E00
1E00
1E00
1E00
1E00
1E00
1E00
1E00
1E00
1E00
1E00
1E00
1E00
1E00
1E00
1E00
1E00
1E00
1E00
1E00
1E00
1E00
1E00
1E00
1E00
1FFE
1FFF
1FFF
1FFF
1FFE
ENDCHAR
STARTCHAR lacute
ENCODING 314
SWIDTH 335 0
DWIDTH 15 0
BBX 16 40 -3 0
BITMAP
0180
0FC0
1FC0
7F80
FE00
FC00
F000
0000
0000
1E00
1E00
1E00
1E00
1E00
1E00
1E00
1E00
1E00
1E00
1E00
1E00
1E00
1E00
1E00
1E00
1E00
1E00
1E00
1E00
1E00
1E00
1E00
1E00
1E00
1E00
1FFE
1FFF
1FFF
1FFF
1FFE
ENDCHAR
STARTCHAR Lcommaaccent
ENCODING 315
SWIDTH 335 0
DWIDTH 15 0
BBX 13 40 0 -9
BITMAP
F000
F000
F000
F000
F000
F000
F000
F000
F000
F000
F000
F000
F000
F000
F000
F000
F000
F000
F000
F000
F000
F000
F000
F000
F000
F000
FFF0
FFF8
FFF8
FFF8
FFF0
0000
0000
0F00
0F80
0F80
0F80
0F80
0F00
0600
ENDCHAR
STARTCHAR lcommaaccent
ENCODING 316
SWIDTH 335 0
DWIDTH 15 0
BBX 13 40 0 -9
BITMAP
F000
F000
F000
F000
F000
F000
F000
F000
F000
F000
F000
F000
F000
F000
F000
F000
F000
F000
F000
F000
F000
F000
F000
F000
F000
F000
FFF0
FFF8
FFF8
FFF8
FFF0
0000
0000
0F00
0F80
0F80
0F80
0F80
0F00
0600
ENDCHAR
STARTCHAR Lcaron
ENCODING 317
SWIDTH 335 0
DWIDTH 15 0
BBX 16 35 -3 2
BITMAP
F3C0
FFC0
FFC0
7F80
7F00
3F00
1F00
1F00
1F00
1F00
1F00
1F00
1F00
1F00
1F00
1F00
1F00
1F00
1F00
1F00
1F00
1F00
1F00
1F00
1F00
1F00
1F00
1F00
1F00
1F00
1FFE
1FFF
1FFF
1FFF
1FFF
ENDCHAR
STARTCHAR Lslash
ENCODING 321
SWIDTH 414 0
DWIDTH 19 0
BBX 18 31 -3 0
BITMAP
038000
07C000
07C000
07C000
07C000
07C000
07C000
07C000
07C000
07CC00
07DE00
07FE00
07FE00
07FC00
07F800
07F000
07E000
0FC000
1FC000
3FC000
7FC000
FFC000
FFC000
FFC000
77C000
07C000
07C000
07FFC0
07FFC0
07FFC0
07FFC0
ENDCHAR
STARTCHAR lslash
ENCODING 322
SWIDTH 414 0
DWIDTH 19 0
BBX 18 30 -3 0
BITMAP
038000
07C000
07C000
07C000
07C000
07C000
07C000
07C000
07C000
07CC00
07DE00
07FE00
07FE00
07FC00
07F800
07F000
07E000
0FC000
1FC000
3FC000
7FC000
FFC000
FFC000
77C000
07C000
07C000
07FFC0
07FFC0
07FFC0
03FF80
ENDCHAR
STARTCHAR Nacute
ENCODING 323
SWIDTH 410 0
DWIDTH 19 0
BBX 15 40 0 0
BITMAP
0060
01F0
07F0
0FF0
1FC0
3F00
1C00
0000
0000
F01E
F01E
F81E
F81E
FC1E
FC1E
FC1E
FE1E
FE1E
FF1E
FF1E
FF9E
FF9E
FF9E
FFDE
FFDE
FBFE
FBFE
FBFE
F9FE
F9FE
F8FE
F8FE
F8FE
F87E
F87E
F83E
F83E
F83E
F81E
F01E
ENDCHAR
STARTCHAR nacute
ENCODING 324
SWIDTH 410 0
DWIDTH 19 0
BBX 15 40 0 0
BITMAP
0060
01F0
07F0
0FF0
1FC0
3F00
1C00
0000
0000
F01E
F01E
F81E
F81E
FC1E
FC1E
FC1E
FE1E
FE1E
FF1E
FF1E
FF9E
FF9E
FF9E
FFDE
FFDE
FBFE
FBFE
FBFE
F9FE
F9FE
F8FE
F8FE
F8FE
F87E
F87E
F83E
F83E
F83E
F81E
F01E
ENDCHAR
STARTCHAR Ncommaaccent
ENCODING 325
SWIDTH 410 0
DWIDTH 19 0
BBX 15 40 0 -9
BITMAP
F01E
F01E
F81E
F81E
FC1E
FC1E
FC1E
FE1E
FE1E
FF1E
FF1E
FF9E
FF9E
FF9E
FFDE
FFDE
FBFE
FBFE
FBFE
F9FE
F9FE
F8FE
F8FE
F8FE
F87E
F87E
F83E
F83E
F83E
F81E
F01E
0000
0000
03C0
03E0
03E0
03E0
03E0
03E0
00C0
ENDCHAR
STARTCHAR ncommaaccent
ENCODING 326
SWIDTH 410 0
DWIDTH 19 0
BBX 15 40 0 -9
BITMAP
F01E
F01E
F81E
F81E
FC1E
FC1E
FC1E
FE1E
FE1E
FF1E
FF1E
FF9E
FF9E
FF9E
FFDE
FFDE
FBFE
FBFE
FBFE
F9FE
F9FE
F8FE
F8FE
F8FE
F87E
F87E
F83E
F83E
F83E
F81E
F01E
0000
0000
03C0
03E0
03E0
03E0
03E0
03E0
00C0
ENDCHAR
STARTCHAR Ncaron
ENCODING 327
SWIDTH 410 0
DWIDTH 19 0
BBX 15 40 0 0
BITMAP
1C70
3EF8
3FF8
1FF0
0FE0
07C0
03C0
0000
0000
F01E
F01E
F81E
F81E
FC1E
FC1E
FC1E
FE1E
FE1E
FF1E
FF1E
FF9E
FF9E
FF9E
FFDE
FFDE
FBFE
FBFE
FBFE
F9FE
F9FE
F8FE
F8FE
F8FE
F87E
F87E
F83E
F83E
F83E
F81E
F01E
ENDCHAR
STARTCHAR ncaron
ENCODING 328
SWIDTH 410 0
DWIDTH 19 0
BBX 15 40 0 0
BITMAP
1C70
3EF8
3FF8
1FF0
0FE0
07C0
03C0
0000
0000
F01E
F01E
F81E
F81E
FC1E
FC1E
FC1E
FE1E
FE1E
FF1E
FF1E
FF9E
FF9E
FF9E
FFDE
FFDE
FBFE
FBFE
FBFE
F9FE
F9FE
F8FE
F8FE
F8FE
F87E
F87E
F83E
F83E
F83E
F81E
F01E
ENDCHAR
STARTCHAR Omacron
ENCODING 332
SWIDTH 406 0
DWIDTH 19 0
BBX 15 38 0 0
BITMAP
1FE0
3FF8
3FF8
3FF8
1FF0
0000
0000
07E0
1FF0
3FF8
7FFC
7FFC
F83E
F83E
F83E
F81E
F81E
F81E
F81E
F81E
F81E
F81E
F81E
F81E
F81E
F81E
F81E
F81E
F81E
F81E
F83E
F83E
F83E
7FFC
7FFC
3FF8
1FF0
07E0
ENDCHAR
STARTCHAR omacron
ENCODING 333
SWIDTH 406 0
DWIDTH 19 0
BBX 15 38 0 0
BITMAP
1FE0
3FF8
3FF8
3FF8
1FF0
0000
0000
07E0
1FF0
3FF8
7FFC
7FFC
F83E
F83E
F83E
F81E
F81E
F81E
F81E
F81E
F81E
F81E
F81E
F81E
F81E
F81E
F81E
F81E
F81E
F81E
F83E
F83E
F83E
7FFC
7FFC
3FF8
1FF0
07E0
ENDCHAR
STARTCHAR Obreve
ENCODING 334
SWIDTH 406 0
DWIDTH 19 0
BBX 15 39 0 0
BITMAP
3C78
3FF8
3FF8
3FF0
1FF0
07C0
0000
0000
07E0
1FF0
3FF8
7FFC
7FFC
F83E
F83E
F83E
F81E
F81E
F81E
F81E
F81E
F81E
F81E
F81E
F81E
F81E
F81E
F81E
F81E
F81E
F81E
F83E
F83E
F83E
7FFC
7FFC
3FF8
1FF0
07E0
ENDCHAR
STARTCHAR obreve
ENCODING 335
SWIDTH 406 0
DWIDTH 19 0
BBX 15 39 0 0
BITMAP
3C78
3FF8
3FF8
3FF0
1FF0
07C0
0000
0000
07E0
1FF0
3FF8
7FFC
7FFC
F83E
F83E
F83E
F81E
F81E
F81E
F81E
F81E
F81E
F81E
F81E
F81E
F81E
F81E
F81E
F81E
F81E
F81E
F83E
F83E
F83E
7FFC
7FFC
3FF8
1FF0
07E0
ENDCHAR
STARTCHAR OE
ENCODING 338
SWIDTH 544 0
DWIDTH 25 0
BBX 21 31 0 0
BITMAP
03FFF8
0FFFF8
1FFFF8
3FFFF8
3FFFF0
7EF000
7CF000
F8F000
F8F000
F8F000
F8F000
F8F000
F8F000
F8FFF0
F8FFF8
F8FFF8
F8FFF8
F8FFF0
F8F000
F8F000
F8F000
F8F000
F8F000
F8F000
7CF000
7EF000
7FFFE0
3FFFF8
1FFFF8
0FFFF8
03FFF8
ENDCHAR
STARTCHAR oe
ENCODING 339
SWIDTH 544 0
DWIDTH 25 0
BBX 20 30 0 0
BITMAP
01FFF0
07FFF0
1FFFF0
3FFFF0
3FFFE0
7EF000
7CF000
78F000
F8F000
F8F000
F8F000
F8F000
F8F000
F8FFF0
F8FFF0
F8FFF0
F8FFF0
F8F000
F8F000
F8F000
F8F000
F8F000
78F000
7CF000
7CF000
7FF000
3FFFF0
1FFFF0
0FFFF0
03FFF0
ENDCHAR
STARTCHAR Racute
ENCODING 340
SWIDTH 398 0
DWIDTH 18 0
BBX 15 40 0 0
BITMAP
0060
01F0
07F0
0FE0
3FC0
3F00
1C00
0000
0000
7FC0
FFF0
FFFC
FFFC
FFFE
F83E
F83E
F81E
F81E
F81E
F83E
F83E
F83E
FFFE
FFFC
FFFC
FFF8
FFFC
F8FC
F83E
F83E
F83E
F83E
F83E
F83E
F83E
F83E
F83E
F83E
F83E
F03C
ENDCHAR
STARTCHAR racute
ENCODING 341
SWIDTH 398 0
DWIDTH 18 0
BBX 15 40 0 0
BITMAP
0060
01F0
07F0
0FE0
3FC0
3F00
1C00
0000
0000
7FC0
FFF0
FFFC
FFFC
FFFE
F83E
F83E
F81E
F81E
F81E
F83E
F83E
F83E
FFFE
FFFC
FFFC
FFF8
FFFC
F8FC
F83E
F83E
F83E
F83E
F83E
F83E
F83E
F83E
F83E
F83E
F83E
F03C
ENDCHAR
STARTCHAR Rcommaaccent
ENCODING 342
SWIDTH 398 0
DWIDTH 18 0
BBX 15 40 0 -9
BITMAP
7FC0
FFF0
FFFC
FFFC
FFFE
F83E
F83E
F81E
F81E
F81E
F83E
F83E
F83E
FFFE
FFFC
FFFC
FFF8
FFFC
F8FC
F83E
F83E
F83E
F83E
F83E
F83E
F83E
F83E
F83E
F83E
F83E
F03C
0000
0000
0380
07C0
07C0
07C0
07C0
07C0
0300
ENDCHAR
STARTCHAR rcommaaccent
ENCODING 343
SWIDTH 398 0
DWIDTH 18 0
BBX 15 40 0 -9
BITMAP
7FC0
FFF0
FFFC
FFFC
FFFE
F83E
F83E
F81E
F81E
F81E
F83E
F83E
F83E
FFFE
FFFC
FFFC
FFF8
FFFC
F8FC
F83E
F83E
F83E
F83E
F83E
F83E
F83E
F83E
F83E
F83E
F83E
F03C
0000
0000
0380
07C0
07C0
07C0
07C0
07C0
0300
ENDCHAR
STARTCHAR Rcaron
ENCODING 344
SWIDTH 398 0
DWIDTH 18 0
BBX 15 40 0 0
BITMAP
18E0
7DF0
7FF0
3FE0
1FC0
0FC0
0780
0000
0000
7FC0
FFF0
FFFC
FFFC
FFFE
F83E
F83E
F81E
F81E
F81E
F83E
F83E
F83E
FFFE
FFFC
FFFC
FFF8
FFFC
F8FC
F83E
F83E
F83E
F83E
F83E
F83E
F83E
F83E
F83E
F83E
F83E
F03C
ENDCHAR
STARTCHAR rcaron
ENCODING 345
SWIDTH 398 0
DWIDTH 18 0
BBX 15 40 0 0
BITMAP
18E0
7DF0
7FF0
3FE0
1FC0
0FC0
0780
0000
0000
7FC0
FFF0
FFFC
FFFC
FFFE
F83E
F83E
F81E
F81E
F81E
F83E
F83E
F83E
FFFE
FFFC
FFFC
FFF8
FFFC
F8FC
F83E
F83E
F83E
F83E
F83E
F83E
F83E
F83E
F83E
F83E
F83E
F03C
ENDCHAR
STARTCHAR Sacute
ENCODING 346
SWIDTH 398 0
DWIDTH 18 0
BBX 15 40 0 0
BITMAP
0020
01F0
07F0
0FF0
1FC0
3F00
1C00
0000
0000
07E0
1FF0
3FF8
7FFC
7FFC
F83E
F83E
F81E
F81E
F81E
F81E
7C00
7E00
3F80
1FC0
0FE0
07F0
03F8
01FC
007C
F07E
F83E
F81E
F81E
F83E
F83E
7FFE
7FFC
3FFC
1FF8
0FE0
ENDCHAR
STARTCHAR sacute
ENCODING 347
SWIDTH 398 0
DWIDTH 18 0
BBX 15 40 0 0
BITMAP
0020
01F0
07F0
0FF0
1FC0
3F00
1C00
0000
0000
07E0
1FF0
3FF8
7FFC
7FFC
F83E
F83E
F81E
F81E
F81E
F81E
7C00
7E00
3F80
1FC0
0FE0
07F0
03F8
01FC
007C
F07E
F83E
F81E
F81E
F83E
F83E
7FFE
7FFC
3FFC
1FF8
0FE0
ENDCHAR
STARTCHAR Scircumflex
ENCODING 348
SWIDTH 398 0
DWIDTH 18 0
BBX 15 40 0 0
BITMAP
0380
07C0
0FE0
1FF0
1FF8
3EF8
1EF8
0000
0000
07E0
1FF0
3FF8
7FFC
7FFC
F83E
F83E
F81E
F81E
F81E
F81E
7C00
7E00
3F80
1FC0
0FE0
07F0
03F8
01FC
007C
F07E
F83E
F81E
F81E
F83E
F83E
7FFE
7FFC
3FFC
1FF8
0FE0
ENDCHAR
STARTCHAR scircumflex
ENCODING 349
SWIDTH 398 0
DWIDTH 18 0
BBX 15 40 0 0
BITMAP
0380
07C0
0FE0
1FF0
1FF8
3EF8
1EF8
0000
0000
07E0
1FF0
3FF8
7FFC
7FFC
F83E
F83E
F81E
F81E
F81E
F81E
7C00
7E00
3F80
1FC0
0FE0
07F0
03F8
01FC
007C
F07E
F83E
F81E
F81E
F83E
F83E
7FFE
7FFC
3FFC
1FF8
0FE0
ENDCHAR
STARTCHAR Scedilla
ENCODING 350
SWIDTH 398 0
DWIDTH 18 0
BBX 15 41 0 -10
BITMAP
07E0
1FF0
3FF8
7FFC
7FFC
F83E
F83E
F81E
F81E
F81E
F81E
7C00
7E00
3F80
1FC0
0FE0
07F0
03F8
01FC
007C
F07E
F83E
F81E
F81E
F83E
F83E
7FFE
7FFC
3FFC
1FF8
0FE0
0380
0380
03F0
03F8
03FC
00FC
0FFC
0FF8
07F0
03C0
ENDCHAR
STARTCHAR scedilla
ENCODING 351
SWIDTH 398 0
DWIDTH 18 0
BBX 15 41 0 -10
BITMAP
07E0
1FF0
3FF8
7FFC
7FFC
F83E
F83E
F81E
F81E
F81E
F81E
7C00
7E00
3F80
1FC0
0FE0
07F0
03F8
01FC
007C
F07E
F83E
F81E
F81E
F83E
F83E
7FFE
7FFC
3FFC
1FF8
0FE0
0380
0380
03F0
03F8
03FC
00FC
0FFC
0FF8
07F0
03C0
ENDCHAR
STARTCHAR Scaron
ENCODING 352
SWIDTH 398 0
DWIDTH 18 0
BBX 15 40 0 0
BITMAP
0C70
3EF8
1FF8
1FF0
0FE0
07E0
03C0
0000
0000
07E0
1FF0
3FF8
7FFC
7FFC
F83E
F83E
F81E
F81E
F81E
F81E
7C00
7E00
3F80
1FC0
0FE0
07F0
03F8
01FC
007C
F07E
F83E
F81E
F81E
F83E
F83E
7FFE
7FFC
3FFC
1FF8
0FE0
ENDCHAR
STARTCHAR scaron
ENCODING 353
SWIDTH 398 0
DWIDTH 18 0
BBX 15 40 0 0
BITMAP
0C70
3EF8
1FF8
1FF0
0FE0
07E0
03C0
0000
0000
07E0
1FF0
3FF8
7FFC
7FFC
F83E
F83E
F81E
F81E
F81E
F81E
7C00
7E00
3F80
1FC0
0FE0
07F0
03F8
01FC
007C
F07E
F83E
F81E
F81E
F83E
F83E
7FFE
7FFC
3FFC
1FF8
0FE0
ENDCHAR
STARTCHAR Tcommaaccent
ENCODING 354
SWIDTH 401 0
DWIDTH 18 0
BBX 15 40 0 -9
BITMAP
FFFE
FFFE
FFFE
FFFE
7FFC
07C0
07C0
07C0
07C0
07C0
07C0
07C0
07C0
07C0
07C0
07C0
07C0
07C0
07C0
07C0
07C0
07C0
07C0
07C0
07C0
07C0
07C0
07C0
07C0
07C0
0380
0000
0000
03C0
07C0
07C0
07C0
07C0
07C0
0380
ENDCHAR
STARTCHAR tcommaaccent
ENCODING 355
SWIDTH 401 0
DWIDTH 18 0
BBX 15 40 0 -9
BITMAP
FFFE
FFFE
FFFE
FFFE
7FFC
07C0
07C0
07C0
07C0
07C0
07C0
07C0
07C0
07C0
07C0
07C0
07C0
07C0
07C0
07C0
07C0
07C0
07C0
07C0
07C0
07C0
07C0
07C0
07C0
07C0
0380
0000
0000
03C0
07C0
07C0
07C0
07C0
07C0
0380
ENDCHAR
STARTCHAR Tcaron
ENCODING 356
SWIDTH 401 0
DWIDTH 18 0
BBX 15 40 0 0
BITMAP
1C70
1EF8
1FF8
1FF0
0FF0
07E0
03C0
0000
0000
FFFE
FFFE
FFFE
FFFE
7FFC
07C0
07C0
07C0
07C0
07C0
07C0
07C0
07C0
07C0
07C0
07C0
07C0
07C0
07C0
07C0
07C0
07C0
07C0
07C0
07C0
07C0
07C0
07C0
07C0
07C0
0380
ENDCHAR
STARTCHAR tcaron
ENCODING 357
SWIDTH 401 0
DWIDTH 18 0
BBX 15 40 0 0
BITMAP
1C70
1EF8
1FF8
1FF0
0FF0
07E0
03C0
0000
0000
FFFE
FFFE
FFFE
FFFE
7FFC
07C0
07C0
07C0
07C0
07C0
07C0
07C0
07C0
07C0
07C0
07C0
07C0
07C0
07C0
07C0
07C0
07C0
07C0
07C0
07C0
07C0
07C0
07C0
07C0
07C0
0380
ENDCHAR
STARTCHAR Utilde
ENCODING 360
SWIDTH 409 0
DWIDTH 19 0
BBX 15 39 0 0
BITMAP
0C00
3F3C
7FFC
FFFC
FFFC
FBF8
00E0
0000
F01C
F03E
F03E
F03E
F03E
F03E
F03E
F03E
F03E
F03E
F03E
F03E
F03E
F03E
F03E
F03E
F03E
F03E
F03E
F03E
F03E
F03E
F03E
F03E
F83E
F87E
FFFC
7FFC
7FF8
3FF0
0FC0
ENDCHAR
STARTCHAR utilde
ENCODING 361
SWIDTH 409 0
DWIDTH 19 0
BBX 15 39 0 0
BITMAP
0E00
3F3C
7FFC
FFFC
FFFC
FBF8
00E0
0000
F01C
F03E
F03E
F03E
F03E
F03E
F03E
F03E
F03E
F03E
F03E
F03E
F03E
F03E
F03E
F03E
F03E
F03E
F03E
F03E
F03E
F03E
F03E
F03E
F83E
F87E
FFFC
7FFC
7FF8
3FF0
0FE0
ENDCHAR
STARTCHAR Umacron
ENCODING 362
SWIDTH 409 0
DWIDTH 19 0
BBX 15 37 0 0
BITMAP
3FF0
3FF8
3FF0
3FF0
0000
0000
F01C
F03E
F03E
F03E
F03E
F03E
F03E
F03E
F03E
F03E
F03E
F03E
F03E
F03E
F03E
F03E
F03E
F03E
F03E
F03E
F03E
F03E
F03E
F03E
F83E
F87E
FFFC
7FFC
7FF8
3FF0
0FC0
ENDCHAR
STARTCHAR umacron
ENCODING 363
SWIDTH 409 0
DWIDTH 19 0
BBX 15 37 0 0
BITMAP
3FF8
3FF8
3FF8
1FF0
0000
0000
F01C
F03E
F03E
F03E
F03E
F03E
F03E
F03E
F03E
F03E
F03E
F03E
F03E
F03E
F03E
F03E
F03E
F03E
F03E
F03E
F03E
F03E
F03E
F03E
F83E
F87E
FFFC
7FFC
7FF8
3FF0
0FE0
ENDCHAR
STARTCHAR Ubreve
ENCODING 364
SWIDTH 409 0
DWIDTH 19 0
BBX 15 39 0 0
BITMAP
3CF0
3FF8
3FF0
3FF0
1FE0
0FC0
0000
0000
F01C
F03E
F03E
F03E
F03E
F03E
F03E
F03E
F03E
F03E
F03E
F03E
F03E
F03E
F03E
F03E
F03E
F03E
F03E
F03E
F03E
F03E
F03E
F03E
F83E
F87E
FFFC
7FFC
7FF8
3FF0
0FC0
ENDCHAR
STARTCHAR ubreve
ENCODING 365
SWIDTH 409 0
DWIDTH 19 0
BBX 15 39 0 0
BITMAP
3C70
3FF8
3FF8
3FF0
1FF0
0FC0
0000
0000
F01C
F03E
F03E
F03E
F03E
F03E
F03E
F03E
F03E
F03E
F03E
F03E
F03E
F03E
F03E
F03E
F03E
F03E
F03E
F03E
F03E
F03E
F03E
F03E
F83E
F87E
FFFC
7FFC
7FF8
3FF0
0FE0
ENDCHAR
STARTCHAR Uring
ENCODING 366
SWIDTH 409 0
DWIDTH 19 0
BBX 15 40 0 0
BITMAP
0300
07C0
0FC0
0CE0
0CE0
0FC0
0780
0000
0000
F01C
F03E
F03E
F03E
F03E
F03E
F03E
F03E
F03E
F03E
F03E
F03E
F03E
F03E
F03E
F03E
F03E
F03E
F03E
F03E
F03E
F03E
F03E
F03E
F03E
F87E
FFFC
7FFC
7FF8
3FF0
0FC0
ENDCHAR
STARTCHAR uring
ENCODING 367
SWIDTH 409 0
DWIDTH 19 0
BBX 15 40 0 0
BITMAP
0300
07C0
0FE0
0CE0
0EE0
0FC0
0780
0000
0000
F01C
F03E
F03E
F03E
F03E
F03E
F03E
F03E
F03E
F03E
F03E
F03E
F03E
F03E
F03E
F03E
F03E
F03E
F03E
F03E
F03E
F03E
F03E
F03E
F03E
F87E
FFFC
7FFC
7FF8
3FF0
0FE0
ENDCHAR
STARTCHAR Wcircumflex
ENCODING 372
SWIDTH 560 0
DWIDTH 26 0
BBX 22 40 0 0
BITMAP
003800
007C00
00FE00
01FF00
03FF00
03EF80
01EF00
000000
000000
F0783C
F0783C
F8787C
F87C7C
F8FC7C
F8FC7C
78FC7C
78FC78
7CFC78
7CFEF8
7DFEF8
7DFEF8
3DFEF8
3DFEF0
3DFEF0
3FFFF0
3FFFF0
3FFFF0
1FCFF0
1FCFE0
1FCFE0
1FCFE0
1FCFE0
1FCFE0
0F87E0
0F87C0
0F87C0
0F87C0
0F87C0
0F87C0
070380
ENDCHAR
STARTCHAR wcircumflex
ENCODING 373
SWIDTH 560 0
DWIDTH 26 0
BBX 22 40 0 0
BITMAP
003800
007C00
00FE00
01FF00
03FF00
03EF80
01EF00
000000
000000
F0783C
F0783C
F8787C
F87C7C
F8FC7C
F8FC7C
78FC7C
78FC78
7CFC78
7CFEF8
7DFEF8
7DFEF8
3DFEF8
3DFEF0
3DFEF0
3FFFF0
3FFFF0
3FFFF0
1FCFF0
1FCFE0
1FCFE0
1FCFE0
1FCFE0
1FCFE0
0F87E0
0F87C0
0F87C0
0F87C0
0F87C0
0F87C0
070380
ENDCHAR
STARTCHAR Ycircumflex
ENCODING 374
SWIDTH 406 0
DWIDTH 19 0
BBX 17 40 -1 0
BITMAP
01C000
03E000
07F000
07F800
0FFC00
1F7C00
0F3C00
000000
000000
700700
F80F80
FC0F80
7C1F00
7C1F00
3E3E00
3E3E00
1F7E00
1F7C00
1FFC00
0FF800
0FF800
07F000
07F000
03F000
03E000
03E000
03E000
03E000
03E000
03E000
03E000
03E000
03E000
03E000
03E000
03E000
03E000
03E000
03E000
01C000
ENDCHAR
STARTCHAR ycircumflex
ENCODING 375
SWIDTH 406 0
DWIDTH 19 0
BBX 17 40 -1 0
BITMAP
01C000
03E000
07F000
07F800
0FFC00
1F7C00
0F3C00
000000
000000
700700
F80F80
FC0F80
7C1F00
7C1F00
3E3E00
3E3E00
1F7E00
1F7C00
1FFC00
0FF800
0FF800
07F000
07F000
03F000
03E000
03E000
03E000
03E000
03E000
03E000
03E000
03E000
03E000
03E000
03E000
03E000
03E000
03E000
03E000
01C000
ENDCHAR
STARTCHAR Ydieresis
ENCODING 376
SWIDTH 406 0
DWIDTH 19 0
BBX 17 38 -1 0
BITMAP
0F3C00
1F3C00
1F7C00
1F7C00
0F3C00
000000
000000
700700
F80F80
FC0F80
7C1F00
7C1F00
3E3E00
3E3E00
1F7E00
1F7C00
1FFC00
0FF800
0FF800
07F000
07F000
03F000
03E000
03E000
03E000
03E000
03E000
03E000
03E000
03E000
03E000
03E000
03E000
03E000
03E000
03E000
03E000
01C000
ENDCHAR
STARTCHAR Zacute
ENCODING 377
SWIDTH 411 0
DWIDTH 19 0
BBX 15 40 0 0
BITMAP
0030
01F8
07F8
0FF0
1FC0
1F80
1E00
0000
0000
FFFE
FFFE
FFFE
FFFE
7FFE
007C
007C
00F8
00F8
01F8
01F0
01F0
03E0
03E0
07C0
07C0
07C0
0F80
0F80
1F00
1F00
3F00
3E00
3E00
7C00
7C00
FFF8
FFFE
FFFE
FFFE
FFFE
ENDCHAR
STARTCHAR zacute
ENCODING 378
SWIDTH 411 0
DWIDTH 19 0
BBX 15 40 0 0
BITMAP
0030
01F8
07F8
0FF0
1FC0
1F80
1E00
0000
0000
FFFE
FFFE
FFFE
FFFE
7FFE
007C
007C
00F8
00F8
01F8
01F0
01F0
03E0
03E0
07C0
07C0
07C0
0F80
0F80
1F00
1F00
3F00
3E00
3E00
7C00
7C00
FFF8
FFFE
FFFE
FFFE
FFFE
ENDCHAR
STARTCHAR Zdotaccent
ENCODING 379
SWIDTH 411 0
DWIDTH 19 0
BBX 15 38 0 0
BITMAP
0380
07C0
07C0
07C0
07C0
0000
0000
FFFE
FFFE
FFFE
FFFE
7FFE
007C
007C
00F8
00F8
01F8
01F0
01F0
03E0
03E0
07C0
07C0
07C0
0F80
0F80
1F00
1F00
3F00
3E00
3E00
7C00
7C00
FFF8
FFFE
FFFE
FFFE
FFFE
ENDCHAR
STARTCHAR zdotaccent
ENCODING 380
SWIDTH 411 0
DWIDTH 19 0
BBX 15 38 0 0
BITMAP
0380
07C0
07C0
07C0
07C0
0000
0000
FFFE
FFFE
FFFE
FFFE
7FFE
007C
007C
00F8
00F8
01F8
01F0
01F0
03E0
03E0
07C0
07C0
07C0
0F80
0F80
1F00
1F00
3F00
3E00
3E00
7C00
7C00
FFF8
FFFE
FFFE
FFFE
FFFE
ENDCHAR
STARTCHAR Zcaron
ENCODING 381
SWIDTH 419 0
DWIDTH 19 0
BBX 15 40 0 0
BITMAP
1C70
3EF8
3FF0
1FF0
0FE0
07C0
0780
0000
0000
FFFE
FFFE
FFFE
FFFE
7FFE
007C
007C
00F8
00F8
01F8
01F0
01F0
03E0
03E0
07C0
07C0
07C0
0F80
0F80
1F00
1F00
3F00
3E00
3E00
7C00
7C00
FFF8
FFFE
FFFE
FFFE
FFFE
ENDCHAR
STARTCHAR zcaron
ENCODING 382
SWIDTH 419 0
DWIDTH 19 0
BBX 15 40 0 0
BITMAP
1C70
3EF8
3FF0
1FF0
0FE0
07C0
0780
0000
0000
FFFE
FFFE
FFFE
FFFE
7FFE
007C
007C
00F8
00F8
01F8
01F0
01F0
03E0
03E0
07C0
07C0
07C0
0F80
0F80
1F00
1F00
3F00
3E00
3E00
7C00
7C00
FFF8
FFFE
FFFE
FFFE
FFFE
ENDCHAR
STARTCHAR AEacute
ENCODING 508
SWIDTH 665 0
DWIDTH 31 0
BBX 26 40 0 0
BITMAP
00003000
0001F800
0003F800
000FF000
001FC000
001F8000
001E0000
00000000
00000000
0007FFC0
0007FFC0
000FFFC0
000FFFC0
001FFF80
001F8000
003F8000
003F8000
007F8000
007F8000
007F8000
00FF8000
00FF8000
01F7FF80
01F7FFC0
03E7FFC0
03E7FFC0
07C7FF80
07FF8000
0FFF8000
0FFF8000
0FFF8000
1FFF8000
1F078000
3E078000
3E078000
7C07FF80
7C07FFC0
F807FFC0
F807FFC0
7007FFC0
ENDCHAR
STARTCHAR aeacute
ENCODING 509
SWIDTH 665 0
DWIDTH 31 0
BBX 26 40 0 0
BITMAP
00003000
0001F800
0003F800
000FF000
001FC000
001F8000
001E0000
00000000
00000000
0007FFC0
0007FFC0
000FFFC0
000FFFC0
001FFF80
001F8000
003F8000
003F8000
007F8000
007F8000
007F8000
00FF8000
00FF8000
01F7FF80
01F7FFC0
03E7FFC0
03E7FFC0
07C7FF80
07FF8000
0FFF8000
0FFF8000
0FFF8000
1FFF8000
1F078000
3E078000
3E078000
7C07FF80
7C07FFC0
F807FFC0
F807FFC0
7007FFC0
ENDCHAR
STARTCHAR Oslashacute
ENCODING 510
SWIDTH 406 0
DWIDTH 19 0
BBX 16 40 0 0
BITMAP
0030
01F8
07F8
0FF0
1FC0
3F00
1C00
0000
0000
07EE
1FFF
3FFF
7FFE
7FFE
FFFE
FFFE
FFFE
FFFE
FFFE
FFFE
FFFE
FFFE
FFFE
FFFE
FFFE
FFFE
FFFE
FFFE
FFFE
FFFE
FFFE
FFFE
FFFE
FFFE
FFFE
7FFC
7FFC
FFF8
FFF0
F7E0
ENDCHAR
STARTCHAR oslashacute
ENCODING 511
SWIDTH 406 0
DWIDTH 19 0
BBX 16 31 0 0
BITMAP
07EE
1FFF
3FFF
7FFE
7FFE
FFFE
FFFE
FFFE
FFFE
FFFE
FFFE
FFFE
FFFE
FFFE
FFFE
FFFE
FFFE
FFFE
FFFE
FFFE
FFFE
FFFE
FFFE
FFFE
FFFE
FFFE
7FFC
7FFC
FFF8
FFF0
F7E0
ENDCHAR
STARTCHAR circumflex
ENCODING 710
SWIDTH 237 0
DWIDTH 11 0
BBX 10 7 0 33
BITMAP
1C00
3E00
7F00
7F80
FFC0
FFC0
F3C0
ENDCHAR
STARTCHAR caron
ENCODING 711
SWIDTH 232 0
DWIDTH 11 0
BBX 10 7 0 33
BITMAP
E380
F7C0
FFC0
FF80
7F80
3F00
1E00
ENDCHAR
STARTCHAR breve
ENCODING 728
SWIDTH 241 0
DWIDTH 11 0
BBX 11 6 0 33
BITMAP
F3C0
FFE0
FFC0
FFC0
7F80
3F00
ENDCHAR
STARTCHAR dotaccent
ENCODING 729
SWIDTH 82 0
DWIDTH 4 0
BBX 5 5 -1 33
BITMAP
70
F8
F8
F8
70
ENDCHAR
STARTCHAR ring
ENCODING 730
SWIDTH 140 0
DWIDTH 6 0
BBX 7 7 -1 33
BITMAP
3C
7E
7E
E6
7E
7E
3C
ENDCHAR
STARTCHAR tilde
ENCODING 732
SWIDTH 319 0
DWIDTH 15 0
BBX 14 7 0 32
BITMAP
1C00
7F3C
FFFC
FFFC
FFF8
F3F0
0040
ENDCHAR
STARTCHAR Wgrave
ENCODING 7808
SWIDTH 560 0
DWIDTH 26 0
BBX 22 40 0 0
BITMAP
00C000
01F000
01FC00
00FF00
007F80
001F80
000780
000000
000000
F0783C
F0783C
F8787C
F87C7C
F8FC7C
F8FC7C
78FC7C
78FC78
7CFC78
7CFEF8
7DFEF8
7DFEF8
3DFEF8
3DFEF0
3DFEF0
3FFFF0
3FFFF0
3FFFF0
1FCFF0
1FCFE0
1FCFE0
1FCFE0
1FCFE0
1FCFE0
0F87E0
0F87C0
0F87C0
0F87C0
0F87C0
0F87C0
070380
ENDCHAR
STARTCHAR wgrave
ENCODING 7809
SWIDTH 560 0
DWIDTH 26 0
BBX 22 40 0 0
BITMAP
00C000
01F000
01FC00
00FF00
007F80
001F80
000780
000000
000000
F0783C
F0783C
F8787C
F87C7C
F8FC7C
F8FC7C
78FC7C
78FC78
7CFC78
7CFEF8
7DFEF8
7DFEF8
3DFEF8
3DFEF0
3DFEF0
3FFFF0
3FFFF0
3FFFF0
1FCFF0
1FCFE0
1FCFE0
1FCFE0
1FCFE0
1FCFE0
0F87E0
0F87C0
0F87C0
0F87C0
0F87C0
0F87C0
070380
ENDCHAR
STARTCHAR Wacute
ENCODING 7810
SWIDTH 560 0
DWIDTH 26 0
BBX 22 40 0 0
BITMAP
000600
001F00
007F00
00FF00
01FC00
03F000
01C000
000000
000000
F0783C
F0783C
F8787C
F87C7C
F8FC7C
F8FC7C
78FC7C
78FC78
7CFC78
7CFEF8
7DFEF8
7DFEF8
3DFEF8
3DFEF0
3DFEF0
3FFFF0
3FFFF0
3FFFF0
1FCFF0
1FCFE0
1FCFE0
1FCFE0
1FCFE0
1FCFE0
0F87E0
0F87C0
0F87C0
0F87C0
0F87C0
0F87C0
070380
ENDCHAR
STARTCHAR wacute
ENCODING 7811
SWIDTH 560 0
DWIDTH 26 0
BBX 22 40 0 0
BITMAP
000600
001F00
007F00
00FF00
01FC00
03F000
01C000
000000
000000
F0783C
F0783C
F8787C
F87C7C
F8FC7C
F8FC7C
78FC7C
78FC78
7CFC78
7CFEF8
7DFEF8
7DFEF8
3DFEF8
3DFEF0
3DFEF0
3FFFF0
3FFFF0
3FFFF0
1FCFF0
1FCFE0
1FCFE0
1FCFE0
1FCFE0
1FCFE0
0F87E0
0F87C0
0F87C0
0F87C0
0F87C0
0F87C0
070380
ENDCHAR
STARTCHAR Wdieresis
ENCODING 7812
SWIDTH 560 0
DWIDTH 26 0
BBX 22 38 0 0
BITMAP
01C700
03EF80
03EF80
03EF80
01C700
000000
000000
F0783C
F0783C
F8787C
F87C7C
F8FC7C
F8FC7C
78FC7C
78FC78
7CFC78
7CFEF8
7DFEF8
7DFEF8
3DFEF8
3DFEF0
3DFEF0
3FFFF0
3FFFF0
3FFFF0
1FCFF0
1FCFE0
1FCFE0
1FCFE0
1FCFE0
1FCFE0
0F87E0
0F87C0
0F87C0
0F87C0
0F87C0
0F87C0
070380
ENDCHAR
STARTCHAR wdieresis
ENCODING 7813
SWIDTH 560 0
DWIDTH 26 0
BBX 22 38 0 0
BITMAP
01C700
03EF80
03EF80
03EF80
01C700
000000
000000
F0783C
F0783C
F8787C
F87C7C
F8FC7C
F8FC7C
78FC7C
78FC78
7CFC78
7CFEF8
7DFEF8
7DFEF8
3DFEF8
3DFEF0
3DFEF0
3FFFF0
3FFFF0
3FFFF0
1FCFF0
1FCFE0
1FCFE0
1FCFE0
1FCFE0
1FCFE0
0F87E0
0F87C0
0F87C0
0F87C0
0F87C0
0F87C0
070380
ENDCHAR
STARTCHAR Ygrave
ENCODING 7922
SWIDTH 406 0
DWIDTH 19 0
BBX 17 40 -1 0
BITMAP
060000
0FC000
0FE000
07F800
01FC00
00FC00
003C00
000000
000000
700700
F80F80
FC0F80
7C1F00
7C1F00
3E3E00
3E3E00
1F7E00
1F7C00
1FFC00
0FF800
0FF800
07F000
07F000
03F000
03E000
03E000
03E000
03E000
03E000
03E000
03E000
03E000
03E000
03E000
03E000
03E000
03E000
03E000
03E000
01C000
ENDCHAR
STARTCHAR ygrave
ENCODING 7923
SWIDTH 406 0
DWIDTH 19 0
BBX 17 40 -1 0
BITMAP
060000
0FC000
0FE000
07F800
01FC00
00FC00
003C00
000000
000000
700700
F80F80
FC0F80
7C1F00
7C1F00
3E3E00
3E3E00
1F7E00
1F7C00
1FFC00
0FF800
0FF800
07F000
07F000
03F000
03E000
03E000
03E000
03E000
03E000
03E000
03E000
03E000
03E000
03E000
03E000
03E000
03E000
03E000
03E000
01C000
ENDCHAR
STARTCHAR endash
ENCODING 8211
SWIDTH 349 0
DWIDTH 16 0
BBX 13 5 0 13
BITMAP
3FF0
FFF8
FFF8
FFF8
7FF8
ENDCHAR
STARTCHAR emdash
ENCODING 8212
SWIDTH 349 0
DWIDTH 16 0
BBX 13 5 0 13
BITMAP
3FF0
FFF8
FFF8
FFF8
7FF8
ENDCHAR
STARTCHAR quoteleft
ENCODING 8216
SWIDTH 131 0
DWIDTH 6 0
BBX 4 7 0 24
BITMAP
F0
F0
F0
F0
F0
F0
F0
ENDCHAR
STARTCHAR quoteright
ENCODING 8217
SWIDTH 131 0
DWIDTH 6 0
BBX 4 7 0 24
BITMAP
F0
F0
F0
F0
F0
F0
F0
ENDCHAR
STARTCHAR quotedblleft
ENCODING 8220
SWIDTH 200 0
DWIDTH 9 0
BBX 7 7 0 24
BITMAP
FC
FE
FE
FE
FE
FE
FC
ENDCHAR
STARTCHAR quotedblright
ENCODING 8221
SWIDTH 200 0
DWIDTH 9 0
BBX 7 7 0 24
BITMAP
FC
FE
FE
FE
FE
FE
FC
ENDCHAR
STARTCHAR bullet
ENCODING 8226
SWIDTH 155 0
DWIDTH 7 0
BBX 6 6 0 14
BITMAP
78
FC
FC
FC
FC
78
ENDCHAR
STARTCHAR fraction
ENCODING 8260
SWIDTH 260 0
DWIDTH 12 0
BBX 15 31 -2 0
BITMAP
001E
001E
003E
003E
007C
007C
007C
00F8
00F8
01F0
01F0
01F0
03E0
03E0
07C0
07C0
07C0
0F80
0F80
1F00
1F00
1F00
3E00
3E00
7C00
7C00
7C00
F800
F800
F000
F000
ENDCHAR
STARTCHAR Euro
ENCODING 8364
SWIDTH 370 0
DWIDTH 17 0
BBX 17 31 -2 0
BITMAP
00FC00
03FF00
07FF80
0FFF80
1FFF80
1F8700
1F0000
1F0000
1E0000
1E0000
3E0000
FFFC00
FFFC00
FFFC00
7FFC00
1E0000
1E0000
1E0000
7FFC00
FFFC00
FFFC00
7FFC00
1E0000
1E0000
1F0200
1F0780
1FFF80
0FFF80
07FF80
03FE00
00FC00
ENDCHAR
STARTCHAR trademark
ENCODING 8482
SWIDTH 650 0
DWIDTH 30 0
BBX 28 13 0 18
BITMAP
7FF18060
FFF3C0F0
FFF3E0F0
7FF3E1F0
0F03F1F0
0F03F3F0
0F03F3F0
0F03FFF0
0F03FFF0
0F03DEF0
0F03DEF0
0F03DEF0
07018C70
ENDCHAR
STARTCHAR commaaccent
ENCODING 63171
SWIDTH 260 0
DWIDTH 12 0
BBX 5 7 3 -9
BITMAP
70
F8
F8
F8
F8
F8
20
ENDCHAR
STARTCHAR Acute
ENCODING 63177
SWIDTH 247 0
DWIDTH 11 0
BBX 10 7 0 33
BITMAP
03C0
0FC0
3FC0
7F80
FE00
FC00
6000
ENDCHAR
STARTCHAR Caron
ENCODING 63178
SWIDTH 232 0
DWIDTH 11 0
BBX 10 7 0 33
BITMAP
E380
F7C0
FFC0
FF80
7F80
3F00
1E00
ENDCHAR
STARTCHAR Dieresis
ENCODING 63179
SWIDTH 229 0
DWIDTH 11 0
BBX 10 5 0 33
BITMAP
F3C0
F3C0
F3C0
F3C0
F3C0
ENDCHAR
STARTCHAR Grave
ENCODING 63182
SWIDTH 222 0
DWIDTH 10 0
BBX 10 7 0 33
BITMAP
6000
FC00
FE00
7F80
1FC0
0FC0
03C0
ENDCHAR
STARTCHAR Macron
ENCODING 63184
SWIDTH 231 0
DWIDTH 11 0
BBX 10 5 0 33
BITMAP
7F80
FFC0
FFC0
FFC0
FFC0
ENDCHAR
STARTCHAR uniF8FF
ENCODING 63743
SWIDTH 0 0
DWIDTH 0 0
BBX 1 1 0 0
BITMAP
00
ENDCHAR
STARTCHAR .notdef
ENCODING -1
SWIDTH 210 0
DWIDTH 10 0
BBX 1 1 0 0
BITMAP
00
ENDCHAR
STARTCHAR Ring
ENCODING -1
SWIDTH 140 0
DWIDTH 6 0
BBX 7 7 -1 33
BITMAP
3C
7E
7E
E6
7E
7E
3C
ENDCHAR
STARTCHAR Tilde
ENCODING -1
SWIDTH 319 0
DWIDTH 15 0
BBX 14 7 0 29
BITMAP
1C00
7F18
FFFC
FFFC
FFFC
F3F8
01E0
ENDCHAR
STARTCHAR Circumflex
ENCODING -1
SWIDTH 237 0
DWIDTH 11 0
BBX 10 7 0 33
BITMAP
1C00
3E00
7F00
7F80
FFC0
FFC0
F3C0
ENDCHAR
STARTCHAR Cedilla
ENCODING -1
SWIDTH 201 0
DWIDTH 9 0
BBX 9 11 0 -10
BITMAP
3800
3800
3C00
3F00
3F80
3F80
8780
FF80
FF80
FF00
1800
ENDCHAR
STARTCHAR commaaccent.cap
ENCODING -1
SWIDTH 260 0
DWIDTH 12 0
BBX 5 6 3 -8
BITMAP
70
F8
F8
F8
F8
F0
ENDCHAR
STARTCHAR Breve
ENCODING -1
SWIDTH 241 0
DWIDTH 11 0
BBX 11 6 0 33
BITMAP
F3C0
FFE0
FFC0
FFC0
7F80
3F00
ENDCHAR
ENDFONT
